<svg width="64" height="65" viewBox="0 0 64 65" fill="none" xmlns="http://www.w3.org/2000/svg">
<g filter="url(#filter0_d_133_137)">
<circle cx="32" cy="32.6025" r="25" fill="white"/>
</g>
<path fill-rule="evenodd" clip-rule="evenodd" d="M32.9826 42.2776C32.523 41.8337 32.5106 41.1016 32.9549 40.6424L40.2375 33.1153L33.1352 25.6853C32.6937 25.2234 32.7106 24.4914 33.1728 24.0503C33.6351 23.6092 34.3677 23.626 34.8092 24.0879L42.6796 32.3214C43.1087 32.7703 43.1065 33.4776 42.6748 33.9238L34.6192 42.2499C34.1749 42.7091 33.4422 42.7215 32.9826 42.2776Z" fill="#0A1631"/>
<path fill-rule="evenodd" clip-rule="evenodd" d="M43 33.1198C43 33.7587 42.4818 34.2766 41.8426 34.2766L22.213 34.2766C21.5737 34.2766 21.0556 33.7587 21.0556 33.1198C21.0556 32.4809 21.5737 31.963 22.213 31.963L41.8426 31.963C42.4818 31.963 43 32.4809 43 33.1198Z" fill="#0A1631"/>
<defs>
<filter id="filter0_d_133_137" x="0" y="0.602539" width="64" height="64" filterUnits="userSpaceOnUse" color-interpolation-filters="sRGB">
<feFlood flood-opacity="0" result="BackgroundImageFix"/>
<feColorMatrix in="SourceAlpha" type="matrix" values="0 0 0 0 0 0 0 0 0 0 0 0 0 0 0 0 0 0 127 0" result="hardAlpha"/>
<feOffset/>
<feGaussianBlur stdDeviation="3.5"/>
<feColorMatrix type="matrix" values="0 0 0 0 0 0 0 0 0 0 0 0 0 0 0 0 0 0 0.1 0"/>
<feBlend mode="normal" in2="BackgroundImageFix" result="effect1_dropShadow_133_137"/>
<feBlend mode="normal" in="SourceGraphic" in2="effect1_dropShadow_133_137" result="shape"/>
</filter>
</defs>
</svg>
