<svg width="100" height="63" viewBox="0 0 100 63" fill="none" xmlns="http://www.w3.org/2000/svg">
<circle cx="5.14877" cy="40.3134" r="4.827" fill="#C1C1C1"/>
<circle cx="27.5457" cy="40.3134" r="4.827" fill="#C1C1C1"/>
<circle cx="49.9427" cy="40.3134" r="4.827" fill="#C1C1C1"/>
<circle cx="72.3402" cy="40.3134" r="4.827" fill="#C1C1C1"/>
<circle cx="94.7381" cy="40.3134" r="4.827" fill="#C1C1C1"/>
<circle cx="5.14877" cy="57.3044" r="4.827" fill="#C1C1C1"/>
<circle cx="27.5457" cy="57.3044" r="4.827" fill="#C1C1C1"/>
<circle cx="49.9427" cy="57.3044" r="4.827" fill="#C1C1C1"/>
<circle cx="72.3402" cy="57.3044" r="4.827" fill="#C1C1C1"/>
<circle cx="94.7381" cy="57.3044" r="4.827" fill="#C1C1C1"/>
<circle cx="4.827" cy="4.827" r="4.827" fill="#C1C1C1"/>
<circle cx="27.224" cy="4.827" r="4.827" fill="#C1C1C1"/>
<circle cx="49.6214" cy="4.827" r="4.827" fill="#C1C1C1"/>
<circle cx="72.0184" cy="4.827" r="4.827" fill="#C1C1C1"/>
<circle cx="94.4164" cy="4.827" r="4.827" fill="#C1C1C1"/>
<circle cx="4.827" cy="21.8182" r="4.827" fill="#C1C1C1"/>
<circle cx="27.224" cy="21.8182" r="4.827" fill="#C1C1C1"/>
<circle cx="49.6214" cy="21.8182" r="4.827" fill="#C1C1C1"/>
<circle cx="72.0184" cy="21.8182" r="4.827" fill="#C1C1C1"/>
<circle cx="94.4164" cy="21.8182" r="4.827" fill="#C1C1C1"/>
</svg>
