<svg width="256" height="407" viewBox="0 0 256 407" fill="none" xmlns="http://www.w3.org/2000/svg">
<path d="M56.0805 248.747L56.0229 248.78L29.2803 264.206V295.126L29.3379 295.16L56.0805 310.586L56.1381 310.552L82.8807 295.126V264.208L82.8231 264.174L56.0805 248.747ZM29.5119 264.341L56.0805 249.016L82.649 264.341V294.992L56.0805 310.317L29.5119 294.992V264.341Z" fill="#25426B" fill-opacity="0.6"/>
<path d="M82.7645 110.212L82.7069 110.246L55.9644 125.672V156.591L56.022 156.624L82.7645 172.05L82.8222 172.017L109.564 156.591V125.672L109.506 125.638L82.7645 110.212ZM56.196 125.806L82.7645 110.481L109.332 125.806V156.458L82.7645 171.784L56.196 156.459V125.806Z" fill="#25426B" fill-opacity="0.6"/>
<path d="M56.0805 64.0357L56.0229 64.0693L29.2803 79.4952V110.414L29.3379 110.448L56.0805 125.874L56.1381 125.84L82.8807 110.414V79.4952L82.8231 79.4616L56.0805 64.0357ZM29.5119 79.6283L56.0805 64.3031L82.649 79.6283V110.28L56.0805 125.605L29.5119 110.28V79.6283Z" fill="#25426B" fill-opacity="0.6"/>
<path d="M109.448 64.0357L109.391 64.0693L82.6494 79.4952V110.414L82.707 110.448L109.448 125.874L109.506 125.84L136.249 110.414V79.4952L136.191 79.4616L109.448 64.0357ZM82.8811 79.6283L109.448 64.3031L136.017 79.6283V110.28L109.448 125.605L82.8811 110.28V79.6283Z" fill="#25426B" fill-opacity="0.6"/>
<path d="M162.817 64.0357L162.76 64.0693L136.017 79.4952V110.414L136.075 110.448L162.817 125.874L162.875 125.84L189.617 110.414V79.4952L189.56 79.4616L162.817 64.0357ZM136.249 79.6283L162.817 64.3031L189.386 79.6283V110.28L162.817 125.605L136.249 110.28V79.6283Z" fill="#25426B" fill-opacity="0.6"/>
<path d="M216.186 64.0357L216.128 64.0693L189.386 79.4952V110.414L189.443 110.448L216.186 125.874L216.244 125.84L242.986 110.414V79.4952L242.929 79.4616L216.186 64.0357ZM189.617 79.6283L216.186 64.3031L242.754 79.6283V110.28L216.186 125.605L189.617 110.28V79.6283Z" fill="#25426B" fill-opacity="0.6"/>
<path d="M82.7645 17.8575L82.7069 17.8911L55.9644 33.3169V64.2358L56.022 64.2694L82.7645 79.6953L82.8222 79.6617L109.564 64.2358V33.3169L109.506 33.2833L82.7645 17.8575ZM56.196 33.45L82.7645 18.1249L109.332 33.45V64.1015L82.7645 79.4279L56.196 64.1015V33.45Z" fill="#25426B" fill-opacity="0.6"/>
<path d="M136.132 17.857L136.074 17.8906L109.332 33.3165V64.2354L109.389 64.2689L136.132 79.6948L136.189 79.6612L162.932 64.2354V33.3165L162.874 33.2829L136.132 17.857ZM109.563 33.4496L136.132 18.1244L162.7 33.4496V64.101L136.132 79.4274L109.563 64.101V33.4496Z" fill="#25426B" fill-opacity="0.6"/>
<path d="M189.501 17.8575L189.443 17.8911L162.701 33.3169V64.2358L162.758 64.2694L189.501 79.6953L189.559 79.6617L216.301 64.2358V33.3169L216.243 33.2833L189.501 17.8575ZM162.932 33.45L189.501 18.1249L216.069 33.45V64.1015L189.501 79.4279L162.932 64.1015V33.45Z" fill="#25426B" fill-opacity="0.6"/>
<path d="M29.5119 0.60265V17.9233L56.0805 33.2497L82.649 17.9233V0.60265H82.8807V18.0576L56.1381 33.4835L56.0805 33.5171L29.3379 18.0912L29.2803 18.0576V0.60265H29.5119Z" fill="#25426B" fill-opacity="0.6"/>
<path d="M82.8811 0.60265V17.9233L109.448 33.2497L136.017 17.9233V0.60265H136.249V18.0576L109.506 33.4835L109.448 33.5171L82.707 18.0912L82.6494 18.0576V0.60265H82.8811Z" fill="#25426B" fill-opacity="0.6"/>
<path d="M136.249 0.60265V17.9233L162.817 33.2497L189.386 17.9233V0.60265H189.617V18.0576L162.875 33.4835L162.817 33.5171L136.075 18.0912L136.017 18.0576V0.60265H136.249Z" fill="#25426B" fill-opacity="0.6"/>
<path d="M189.617 0.60265V17.9233L216.186 33.2497L242.754 17.9233V0.60265H242.986V18.0576L216.244 33.4835L216.186 33.5171L189.443 18.0912L189.386 18.0576V0.60265H189.617Z" fill="#25426B" fill-opacity="0.6"/>
<path d="M-4 249.669V248.275L12.2592 238.896V199.47L-4 190.09V188.697L13.4679 198.773V239.592L-4 249.669Z" fill="#25426B" fill-opacity="0.6"/>
<path d="M47.6414 178.365L12.2603 198.774V239.592L47.6414 260.001L83.0225 239.592V198.774L47.6414 178.365ZM13.4678 199.47L47.6414 179.758L81.8138 199.47V238.895L47.6414 258.607L13.4678 238.895V199.47Z" fill="#25426B" fill-opacity="0.6"/>
<path d="M117.195 178.365L81.814 198.774V239.592L117.195 260.001L152.576 239.592V198.774L117.195 178.365ZM83.0215 199.47L117.194 179.758L151.366 199.47V238.895L117.194 258.607L83.0215 238.895V199.47Z" fill="#25426B" fill-opacity="0.6"/>
<path d="M12.8641 199.818L-4 190.09V188.697L12.8641 198.425L47.0366 178.713V139.288L12.8641 119.575L-4 129.303V127.909L12.8641 118.182L48.2453 138.591V179.41L12.8641 199.818Z" fill="#25426B" fill-opacity="0.6"/>
<path d="M82.4172 118.182L47.0361 138.591V179.41L82.4172 199.818L117.798 179.41V138.591L82.4172 118.182ZM48.2448 139.288L82.4172 119.576L116.591 139.288V178.713L82.4172 198.425L48.2448 178.713V139.288Z" fill="#25426B" fill-opacity="0.6"/>
<path d="M151.972 118.182L116.591 138.591V179.41L151.972 199.818L187.354 179.41V138.591L151.972 118.182ZM117.799 139.288L151.971 119.576L186.144 139.288V178.713L151.971 198.425L117.799 178.713V139.288Z" fill="#25426B" fill-opacity="0.6"/>
<path d="M-4 129.303V127.909L12.2592 118.53V79.1048L-4 69.7255V68.3319L13.4679 78.408V119.227L-4 129.303Z" fill="#25426B" fill-opacity="0.6"/>
<path d="M47.6414 57.9996L12.2603 78.4083V119.227L47.6414 139.636L83.0225 119.227V78.4083L47.6414 57.9996ZM13.4678 79.1051L47.6414 59.3931L81.8138 79.1051V118.53L47.6414 138.242L13.4678 118.53V79.1051Z" fill="#25426B" fill-opacity="0.6"/>
<path d="M117.195 57.9996L81.8135 78.4083V119.227L117.195 139.636L152.576 119.227V78.4083L117.195 57.9996ZM83.021 79.1051L117.193 59.3931L151.366 79.1051V118.53L117.193 138.242L83.021 118.53V79.1051Z" fill="#25426B" fill-opacity="0.6"/>
<path d="M-4 7.54497L8.03416 0.602543H10.4492L-4 8.93848V7.54497Z" fill="#25426B" fill-opacity="0.6"/>
<path d="M12.8641 79.4531L-4 69.7261V68.3325L12.8641 78.0608L47.0366 58.3476V18.9225L15.2791 0.602814H17.6941L48.2453 18.2257V59.0444L12.8641 79.4531Z" fill="#25426B" fill-opacity="0.6"/>
<path d="M80.0023 0.602814L48.2448 18.9225V58.3476L82.4172 78.0608L116.591 58.3476V18.9225L84.8322 0.602814H87.2472L117.798 18.2257V59.0444L82.4172 79.4531L47.0361 59.0444V18.2257L77.5873 0.602814H80.0023Z" fill="#25426B" fill-opacity="0.6"/>
<path d="M149.557 0.602814L117.799 18.9225V58.3476L151.972 78.0608L186.145 58.3476V18.9225L154.386 0.602814H156.802L187.352 18.2257V59.0444L151.972 79.4531L116.591 59.0444V18.2257L147.142 0.602814H149.557Z" fill="#25426B" fill-opacity="0.6"/>
<path d="M-4 8.93896V7.54546L8.03416 0.603031H10.4492L-4 8.93896Z" fill="#25426B" fill-opacity="0.6"/>
<path d="M17.694 0.602377L47.6414 17.8775L77.5876 0.602377H80.0038L47.6414 19.271L15.2778 0.602377H17.694Z" fill="#25426B" fill-opacity="0.6"/>
<path d="M87.2475 0.602377L117.195 17.8775L147.141 0.602377H149.557L117.195 19.271L84.8325 0.602377H87.2475Z" fill="#25426B" fill-opacity="0.6"/>
<path d="M156.802 0.602377L186.749 17.8775L216.696 0.602377H219.111L186.749 19.271L154.386 0.602377H156.802Z" fill="#25426B" fill-opacity="0.6"/>
<path d="M82.7645 293.141C83.8243 293.141 84.6838 294 84.6838 295.059C84.6838 296.118 83.8243 296.977 82.7645 296.977C81.7046 296.977 80.8452 296.118 80.8452 295.059C80.8452 294 81.7046 293.141 82.7645 293.141Z" fill="#25426B" fill-opacity="0.6"/>
<path d="M242.869 356.305C243.048 356.305 243.194 356.45 243.194 356.629C243.194 356.808 243.048 356.953 242.869 356.953C242.691 356.953 242.545 356.808 242.545 356.629C242.545 356.45 242.691 356.305 242.869 356.305Z" fill="#25426B" fill-opacity="0.6"/>
<path d="M56.0796 251.333C54.7245 251.333 53.625 250.234 53.625 248.88C53.625 247.526 54.7245 246.427 56.0796 246.427C57.4347 246.427 58.5342 247.526 58.5342 248.88C58.5342 250.234 57.4359 251.333 56.0796 251.333Z" fill="#25426B" fill-opacity="0.6"/>
<path d="M29.3959 262.729C30.249 262.729 30.9406 263.421 30.9406 264.273C30.9406 265.126 30.249 265.817 29.3959 265.817C28.5427 265.817 27.8511 265.126 27.8511 264.273C27.8511 263.421 28.5427 262.729 29.3959 262.729Z" fill="#25426B" fill-opacity="0.6"/>
<path d="M29.3958 293.887C30.0428 293.887 30.5685 294.411 30.5685 295.059C30.5685 295.705 30.044 296.229 29.3958 296.229C28.7477 296.229 28.2231 295.705 28.2231 295.059C28.2231 294.411 28.7489 293.887 29.3958 293.887Z" fill="#25426B" fill-opacity="0.6"/>
<path d="M56.0796 306.866C58.0617 306.866 59.6685 308.471 59.6685 310.451C59.6685 312.432 58.0617 314.037 56.0796 314.037C54.0975 314.037 52.4907 312.432 52.4907 310.451C52.4907 308.471 54.0975 306.866 56.0796 306.866Z" fill="#25426B" fill-opacity="0.6"/>
<path d="M82.7649 261.26C84.4309 261.26 85.7812 262.609 85.7812 264.273C85.7812 265.938 84.4309 267.287 82.7649 267.287C81.0989 267.287 79.7485 265.938 79.7485 264.273C79.7485 262.609 81.0989 261.26 82.7649 261.26Z" fill="#25426B" fill-opacity="0.6"/>
<path d="M56.0796 159.333C54.5277 159.333 53.2686 158.076 53.2686 156.524C53.2686 154.972 54.5265 153.715 56.0796 153.715C57.6316 153.715 58.8907 154.972 58.8907 156.524C58.8907 158.076 57.6328 159.333 56.0796 159.333Z" fill="#25426B" fill-opacity="0.6"/>
<path d="M29.3957 171.67C29.5323 171.67 29.643 171.78 29.643 171.917C29.643 172.053 29.5323 172.164 29.3957 172.164C29.2591 172.164 29.1484 172.053 29.1484 171.917C29.1484 171.78 29.2591 171.67 29.3957 171.67Z" fill="#25426B" fill-opacity="0.6"/>
<path d="M29.3962 200.463C30.6339 200.463 31.6372 201.466 31.6372 202.703C31.6372 203.939 30.6339 204.942 29.3962 204.942C28.1586 204.942 27.1553 203.939 27.1553 202.703C27.1553 201.466 28.1586 200.463 29.3962 200.463Z" fill="#25426B" fill-opacity="0.6"/>
<path d="M56.0797 220.026C55.0127 220.026 54.1484 219.161 54.1484 218.096C54.1484 217.03 55.0139 216.166 56.0797 216.166C57.1468 216.166 58.011 217.031 58.011 218.096C58.0122 219.161 57.1468 220.026 56.0797 220.026Z" fill="#25426B" fill-opacity="0.6"/>
<path d="M107.701 156.525C107.701 155.56 108.483 154.778 109.448 154.778C110.413 154.778 111.196 155.56 111.196 156.525C111.196 157.489 110.413 158.271 109.448 158.271C108.483 158.271 107.701 157.489 107.701 156.525Z" fill="#25426B" fill-opacity="0.6"/>
<path d="M82.7647 168.517C84.6443 168.517 86.1675 170.039 86.1675 171.917C86.1675 173.795 84.6443 175.317 82.7647 175.317C80.885 175.317 79.3618 173.795 79.3618 171.917C79.3618 170.04 80.885 168.517 82.7647 168.517Z" fill="#25426B" fill-opacity="0.6"/>
<path d="M109.449 122.851C111.045 122.851 112.339 124.144 112.339 125.74C112.339 127.335 111.045 128.628 109.449 128.628C107.852 128.628 106.557 127.335 106.557 125.74C106.558 124.144 107.852 122.851 109.449 122.851Z" fill="#25426B" fill-opacity="0.6"/>
<path d="M164.191 125.738C164.191 126.497 163.576 127.111 162.817 127.111C162.059 127.111 161.444 126.497 161.444 125.738C161.444 124.98 162.059 124.366 162.817 124.366C163.576 124.366 164.191 124.981 164.191 125.738Z" fill="#25426B" fill-opacity="0.6"/>
<path d="M189.501 107.691C190.969 107.691 192.158 108.879 192.158 110.346C192.158 111.813 190.969 113.002 189.501 113.002C188.033 113.002 186.843 111.813 186.843 110.346C186.844 108.879 188.034 107.691 189.501 107.691Z" fill="#25426B" fill-opacity="0.6"/>
<path d="M218.752 125.739C218.752 127.155 217.603 128.303 216.186 128.303C214.768 128.303 213.62 127.155 213.62 125.739C213.62 124.322 214.768 123.174 216.186 123.174C217.603 123.174 218.752 124.322 218.752 125.739Z" fill="#25426B" fill-opacity="0.6"/>
<path d="M242.87 107.346C244.528 107.346 245.874 108.689 245.874 110.347C245.874 112.005 244.53 113.349 242.87 113.349C241.211 113.349 239.865 112.006 239.865 110.347C239.866 108.69 241.211 107.346 242.87 107.346Z" fill="#25426B" fill-opacity="0.6"/>
<path d="M56.0795 62.4387C57.0354 62.4387 57.8103 63.2131 57.8103 64.1683C57.8103 65.1236 57.0354 65.8979 56.0795 65.8979C55.1236 65.8979 54.3486 65.1236 54.3486 64.1683C54.3486 63.2131 55.1236 62.4387 56.0795 62.4387Z" fill="#25426B" fill-opacity="0.6"/>
<path d="M29.3959 78.1784C30.1596 78.1784 30.7787 78.7971 30.7787 79.5604C30.7787 80.3236 30.1596 80.9424 29.3959 80.9424C28.6323 80.9424 28.0132 80.3236 28.0132 79.5604C28.0132 78.7971 28.6323 78.1784 29.3959 78.1784Z" fill="#25426B" fill-opacity="0.6"/>
<path d="M28.7407 110.347C28.7407 109.986 29.0336 109.692 29.3961 109.692C29.7574 109.692 30.0514 109.984 30.0514 110.347C30.0514 110.708 29.7586 111.001 29.3961 111.001C29.0348 111.001 28.7407 110.708 28.7407 110.347Z" fill="#25426B" fill-opacity="0.6"/>
<path d="M56.0794 123.028C57.5775 123.028 58.792 124.242 58.792 125.739C58.792 127.236 57.5775 128.45 56.0794 128.45C54.5812 128.45 53.3667 127.236 53.3667 125.739C53.3667 124.242 54.5812 123.028 56.0794 123.028Z" fill="#25426B" fill-opacity="0.6"/>
<path d="M80.5288 79.5603C80.5288 78.3261 81.5299 77.3258 82.765 77.3258C84.0001 77.3258 85.0011 78.3261 85.0011 79.5603C85.0011 80.7946 84.0001 81.7949 82.765 81.7949C81.5299 81.7949 80.5288 80.7946 80.5288 79.5603Z" fill="#25426B" fill-opacity="0.6"/>
<path d="M84.2979 110.346C84.2979 111.193 83.6114 111.879 82.764 111.879C81.9165 111.879 81.23 111.193 81.23 110.346C81.23 109.5 81.9165 108.814 82.764 108.814C83.6114 108.814 84.2979 109.5 84.2979 110.346Z" fill="#25426B" fill-opacity="0.6"/>
<path d="M136.133 111.601C135.44 111.601 134.878 111.038 134.878 110.346C134.878 109.653 135.44 109.091 136.133 109.091C136.827 109.091 137.389 109.653 137.389 110.346C137.389 111.04 136.826 111.601 136.133 111.601Z" fill="#25426B" fill-opacity="0.6"/>
<path d="M160.704 64.1685C160.704 63.0027 161.649 62.0575 162.817 62.0575C163.985 62.0575 164.93 63.0027 164.93 64.1685C164.93 65.3344 163.984 66.2808 162.817 66.2808C161.651 66.2808 160.704 65.3344 160.704 64.1685Z" fill="#25426B" fill-opacity="0.6"/>
<path d="M136.133 82.6035C134.452 82.6035 133.089 81.2424 133.089 79.5622C133.089 77.8821 134.452 76.5209 136.133 76.5209C137.815 76.5209 139.177 77.8821 139.177 79.5622C139.177 81.2412 137.814 82.6035 136.133 82.6035Z" fill="#25426B" fill-opacity="0.6"/>
<path d="M242.87 76.2796C244.684 76.2796 246.155 77.7487 246.155 79.5619C246.155 81.374 244.685 82.8442 242.87 82.8442C241.055 82.8442 239.586 81.3752 239.586 79.5619C239.586 77.7487 241.056 76.2796 242.87 76.2796Z" fill="#25426B" fill-opacity="0.6"/>
<path d="M107.426 64.1684C107.426 63.0517 108.331 62.1473 109.448 62.1473C110.566 62.1473 111.471 63.0529 111.471 64.1684C111.471 65.2851 110.566 66.1895 109.448 66.1895C108.331 66.1895 107.426 65.2851 107.426 64.1684Z" fill="#25426B" fill-opacity="0.6"/>
<path d="M109.448 30.0764C111.276 30.0764 112.759 31.5574 112.759 33.3839C112.759 35.2103 111.276 36.6914 109.448 36.6914C107.62 36.6914 106.138 35.2103 106.138 33.3839C106.138 31.5562 107.62 30.0764 109.448 30.0764Z" fill="#25426B" fill-opacity="0.6"/>
<path d="M189.501 76.107C191.41 76.107 192.958 77.6533 192.958 79.5608C192.958 81.4683 191.41 83.0146 189.501 83.0146C187.592 83.0146 186.044 81.4683 186.044 79.5608C186.044 77.6533 187.592 76.107 189.501 76.107Z" fill="#25426B" fill-opacity="0.6"/>
<path d="M216.186 62.8976C216.888 62.8976 217.457 63.4664 217.457 64.168C217.457 64.8697 216.888 65.4385 216.186 65.4385C215.484 65.4385 214.915 64.8697 214.915 64.168C214.915 63.4664 215.484 62.8976 216.186 62.8976Z" fill="#25426B" fill-opacity="0.6"/>
<path d="M242.87 15.4409C244.279 15.4409 245.421 16.5816 245.421 17.9897C245.421 19.3979 244.279 20.5386 242.87 20.5386C241.462 20.5386 240.319 19.3979 240.319 17.9897C240.319 16.5828 241.462 15.4409 242.87 15.4409Z" fill="#25426B" fill-opacity="0.6"/>
<path d="M216.186 29.4875C218.339 29.4875 220.085 31.2314 220.085 33.3827C220.085 35.5339 218.339 37.2778 216.186 37.2778C214.033 37.2778 212.288 35.5339 212.288 33.3827C212.288 31.2314 214.033 29.4875 216.186 29.4875Z" fill="#25426B" fill-opacity="0.6"/>
<path d="M29.9065 17.9901C29.9065 18.2722 29.6784 18.5015 29.3964 18.5015C29.1143 18.5015 28.8862 18.2734 28.8862 17.9901C28.8862 17.7081 29.1143 17.4788 29.3964 17.4788C29.6784 17.4788 29.9065 17.7081 29.9065 17.9901Z" fill="#25426B" fill-opacity="0.6"/>
<path d="M56.0796 35.0449C55.1614 35.0449 54.416 34.3012 54.416 33.3825C54.416 32.4649 55.1602 31.72 56.0796 31.72C56.9979 31.72 57.7432 32.4637 57.7432 33.3825C57.7432 34.3012 56.9991 35.0449 56.0796 35.0449Z" fill="#25426B" fill-opacity="0.6"/>
<path d="M82.7642 22.2334C80.4188 22.2334 78.5176 20.3338 78.5176 17.9905C78.5176 15.6472 80.4188 13.7476 82.7642 13.7476C85.1096 13.7476 87.0109 15.6472 87.0109 17.9905C87.0097 20.3338 85.1084 22.2334 82.7642 22.2334Z" fill="#25426B" fill-opacity="0.6"/>
<path d="M136.133 20.5522C134.717 20.5522 133.569 19.4044 133.569 17.9902C133.569 16.5749 134.717 15.4282 136.133 15.4282C137.55 15.4282 138.697 16.5749 138.697 17.9902C138.697 19.4056 137.548 20.5522 136.133 20.5522Z" fill="#25426B" fill-opacity="0.6"/>
<path d="M162.818 30.4676C164.43 30.4676 165.737 31.7736 165.737 33.3842C165.737 34.9948 164.43 36.3008 162.818 36.3008C161.206 36.3008 159.898 34.9948 159.898 33.3842C159.898 31.7724 161.206 30.4676 162.818 30.4676Z" fill="#25426B" fill-opacity="0.6"/>
<path d="M192.841 17.9906C192.841 19.8326 191.346 21.3257 189.503 21.3257C187.659 21.3257 186.165 19.8326 186.165 17.9906C186.165 16.1485 187.659 14.6555 189.503 14.6555C191.346 14.6555 192.841 16.1485 192.841 17.9906Z" fill="#25426B" fill-opacity="0.6"/>
<path d="M0.42909 406.247V373.676L-4 371.12V370.794L0.641542 373.472L0.71236 373.512V406.247H0.42909Z" fill="#25426B" fill-opacity="0.6"/>
<path d="M0.641543 260.992L0.570726 261.033L-4 258.396V258.069L0.570726 260.705L32.9979 242.001V204.589L0.570726 185.883L-4 188.519V188.193L0.499908 185.597L0.570726 185.557L33.2092 204.384L33.28 204.425V242.164L0.641543 260.992Z" fill="#25426B" fill-opacity="0.6"/>
<path d="M-4 188.52V188.193L0.42909 185.639V148.227L-4 145.672V145.346L0.641542 148.022L0.71236 148.063V185.802L-4 188.52Z" fill="#25426B" fill-opacity="0.6"/>
<path d="M33.1385 129.195L33.0676 129.235L0.429199 148.063V185.802L0.500017 185.843L33.1385 204.671L33.2093 204.631L65.8489 185.802V148.063L65.7781 148.023L33.1385 129.195ZM0.712469 148.228L33.1396 129.522L65.568 148.228V185.639L33.1396 204.345L0.712469 185.639V148.228Z" fill="#25426B" fill-opacity="0.6"/>
<path d="M98.2773 129.195L98.2065 129.235L65.5669 148.063V185.802L65.6377 185.843L98.2773 204.671L98.3482 204.631L130.988 185.802V148.063L130.917 148.023L98.2773 129.195ZM65.8502 148.228L98.2785 129.522L130.707 148.228V185.639L98.2785 204.345L65.8502 185.639V148.228Z" fill="#25426B" fill-opacity="0.6"/>
<path d="M163.416 129.195L163.345 129.235L130.706 148.063V185.802L130.776 185.843L163.416 204.671L163.487 204.631L196.126 185.802V148.063L196.056 148.023L163.416 129.195ZM130.988 148.228L163.416 129.522L195.844 148.228V185.639L163.416 204.345L130.988 185.639V148.228Z" fill="#25426B" fill-opacity="0.6"/>
<path d="M0.641543 148.268L0.570726 148.309L-4 145.671V145.345L0.570726 147.981L32.9979 129.275V91.8638L0.570726 73.1592L-4 75.7951V75.4689L0.499908 72.8725L0.570726 72.8317L33.2092 91.6599L33.28 91.7007V129.44L0.641543 148.268Z" fill="#25426B" fill-opacity="0.6"/>
<path d="M65.7085 72.8317L65.6377 72.8725L32.998 91.7007V129.44L33.0689 129.48L65.7085 148.309L65.7793 148.268L98.4189 129.44V91.7007L98.3481 91.6599L65.7085 72.8317ZM33.2801 91.8638L65.7085 73.1579L98.1369 91.8638V129.275L65.7085 147.981L33.2801 129.275V91.8638Z" fill="#25426B" fill-opacity="0.6"/>
<path d="M130.847 72.8317L130.776 72.8725L98.1367 91.7007V129.44L98.2075 129.48L130.847 148.309L130.918 148.268L163.558 129.44V91.7007L163.487 91.6599L130.847 72.8317ZM98.4188 91.8638L130.847 73.1579L163.276 91.8638V129.275L130.847 147.981L98.4188 129.275V91.8638Z" fill="#25426B" fill-opacity="0.6"/>
<path d="M-4 75.7949V75.4687L0.42909 72.9131V35.5015L-4 32.9471V32.6209L0.641542 35.2976L0.71236 35.3384V73.0774L-4 75.7949Z" fill="#25426B" fill-opacity="0.6"/>
<path d="M33.1385 16.4697L33.0676 16.5104L0.429199 35.3386V73.0764L0.500017 73.1172L33.1385 91.9453L33.2093 91.9045L65.8489 73.0764V35.3386L65.7781 35.2978L33.1385 16.4697ZM0.712469 35.5017L33.1396 16.7959L65.568 35.5017V72.9133L33.1396 91.6191L0.712469 72.9133V35.5017Z" fill="#25426B" fill-opacity="0.6"/>
<path d="M98.2773 16.4697L98.2065 16.5104L65.5669 35.3386V73.0764L65.6377 73.1172L98.2773 91.9453L98.3482 91.9045L130.988 73.0764V35.3386L130.917 35.2978L98.2773 16.4697ZM65.8502 35.5017L98.2785 16.7959L130.707 35.5017V72.9133L98.2785 91.6191L65.8502 72.9133V35.5017Z" fill="#25426B" fill-opacity="0.6"/>
<path d="M163.416 16.4697L163.345 16.5104L130.706 35.3386V73.0764L130.776 73.1172L163.416 91.9453L163.487 91.9045L196.126 73.0764V35.3386L196.056 35.2978L163.416 16.4697ZM130.988 35.5017L163.416 16.7959L195.844 35.5017V72.9133L163.416 91.6191L130.988 72.9133V35.5017Z" fill="#25426B" fill-opacity="0.6"/>
<path d="M0.641543 35.5437L0.570726 35.5845L-4 32.9473V32.6212L0.570726 35.2571L32.9979 16.5513V5.69932H33.28V16.7144L0.641543 35.5437Z" fill="#25426B" fill-opacity="0.6"/>
<path d="M33.2801 5.69932V16.5513L65.7085 35.2571L98.1357 16.5513V5.69932H98.4189V16.7144L65.7793 35.5437L65.7085 35.5845L33.0677 16.7564L32.998 16.7144V5.69932H33.2801Z" fill="#25426B" fill-opacity="0.6"/>
<path d="M98.419 5.69932V16.5513L130.847 35.2571L163.275 16.5513V5.69932H163.558V16.7144L130.918 35.5437L130.847 35.5845L98.2066 16.7564L98.1357 16.7144V5.69932H98.419Z" fill="#25426B" fill-opacity="0.6"/>
<path d="M163.558 5.69932V16.5513L195.986 35.2571L228.413 16.5513V5.69932H228.697V16.7144L196.056 35.5437L195.986 35.5845L163.345 16.7564L163.274 16.7144V5.69932H163.558Z" fill="#25426B" fill-opacity="0.6"/>
<path d="M-4 346.287V344.585L-0.589962 342.619V294.499L-4 292.532V290.83L0.884002 293.649V343.469L-4 346.287Z" fill="#25426B" fill-opacity="0.6"/>
<path d="M42.5944 268.738L-0.589844 293.648V343.469L42.5944 368.379L85.7786 343.47V293.648L42.5944 268.738ZM0.88412 294.499L42.5932 270.44L84.3022 294.499V342.618L42.5944 366.679L0.885319 342.62V294.499H0.88412Z" fill="#25426B" fill-opacity="0.6"/>
<path d="M0.14702 294.923L-4 292.531V290.83L0.14702 293.223L41.8573 269.164V221.043L0.14702 196.983L-4 199.376V197.675L0.14702 195.283L43.3312 220.192V270.014L0.14702 294.923Z" fill="#25426B" fill-opacity="0.6"/>
<path d="M85.0397 195.283L41.8555 220.192V270.014L85.0397 294.923L128.224 270.014V220.194L85.0397 195.283ZM43.3306 221.043L85.0397 196.983L126.749 221.043V269.164L85.0397 293.223L43.3306 269.164V221.043Z" fill="#25426B" fill-opacity="0.6"/>
<path d="M-4 199.376V197.675L-0.589962 195.709V147.588L-4 145.621V143.921L0.884002 146.738V196.559L-4 199.376Z" fill="#25426B" fill-opacity="0.6"/>
<path d="M42.5944 121.828L-0.589844 146.738V196.558L42.5944 221.467L85.7786 196.558V146.738L42.5944 121.828ZM0.88412 147.588L42.5932 123.529L84.3022 147.588V195.709L42.5932 219.768L0.88412 195.709V147.588Z" fill="#25426B" fill-opacity="0.6"/>
<path d="M0.14702 148.014L-4 145.621V143.921L0.14702 146.313L41.8573 122.253V74.133L0.14702 50.0726L-4 52.4651V50.7646L0.14702 48.3732L43.3312 73.2828V123.103L0.14702 148.014Z" fill="#25426B" fill-opacity="0.6"/>
<path d="M85.0397 48.3735L41.8555 73.283V123.103L85.0397 148.013L128.224 123.103V73.283L85.0397 48.3735ZM43.3306 74.1332L85.0397 50.074L126.749 74.1332V122.253L85.0397 146.312L43.3306 122.253V74.1332Z" fill="#25426B" fill-opacity="0.6"/>
<path d="M-4 52.4653V50.7648L-0.589962 48.798V5.6996H0.884002V49.6483L-4 52.4653Z" fill="#25426B" fill-opacity="0.6"/>
<path d="M0.88412 5.6994V48.7978L42.5944 72.8571L84.3035 48.7978V5.6994H85.7786V49.6481L42.5944 74.5576L-0.589844 49.6481V5.6994H0.88412Z" fill="#25426B" fill-opacity="0.6"/>
<path d="M85.7784 5.6994V48.7978L127.487 72.8571L169.197 48.7978V5.6994H170.672V49.6481L127.487 74.5576L84.3032 49.6481V5.6994H85.7784Z" fill="#25426B" fill-opacity="0.6"/>
<path d="M170.672 5.6994V48.7978L212.381 72.8571L254.09 48.7978V0.6026H255.565V49.6481L212.381 74.5576L169.197 49.6481V5.6994H170.672Z" fill="#25426B" fill-opacity="0.6"/>
<path d="M0.570956 369.915C2.60426 369.915 4.25226 371.561 4.25226 373.593C4.25226 375.624 2.60426 377.271 0.570956 377.271C-1.46234 377.271 -3.11035 375.624 -3.11035 373.593C-3.11035 371.561 -1.46234 369.915 0.570956 369.915Z" fill="#25426B" fill-opacity="0.6"/>
<path d="M31.0068 242.082C31.0068 240.905 31.9623 239.951 33.1398 239.951C34.3172 239.951 35.2727 240.906 35.2727 242.082C35.2727 243.26 34.3172 244.214 33.1398 244.214C31.9623 244.214 31.0068 243.259 31.0068 242.082Z" fill="#25426B" fill-opacity="0.6"/>
<path d="M0.570504 256.719C2.86427 256.719 4.72353 258.577 4.72353 260.869C4.72353 263.16 2.86427 265.018 0.570504 265.018C-1.72326 265.018 -3.58252 263.16 -3.58252 260.869C-3.58372 258.578 -1.72446 256.719 0.570504 256.719Z" fill="#25426B" fill-opacity="0.6"/>
<path d="M33.1392 200.982C35.0873 200.982 36.6681 202.561 36.6681 204.507C36.6681 206.453 35.0885 208.033 33.1392 208.033C31.1899 208.033 29.6104 206.455 29.6104 204.507C29.6104 202.561 31.1899 200.982 33.1392 200.982Z" fill="#25426B" fill-opacity="0.6"/>
<path d="M99.9538 204.508C99.9538 205.432 99.2036 206.182 98.2782 206.182C97.3527 206.182 96.6025 205.432 96.6025 204.508C96.6025 203.583 97.3527 202.833 98.2782 202.833C99.2036 202.832 99.9538 203.582 99.9538 204.508Z" fill="#25426B" fill-opacity="0.6"/>
<path d="M130.848 182.48C132.639 182.48 134.091 183.93 134.091 185.72C134.091 187.51 132.639 188.96 130.848 188.96C129.057 188.96 127.604 187.51 127.604 185.72C127.604 183.93 129.057 182.48 130.848 182.48Z" fill="#25426B" fill-opacity="0.6"/>
<path d="M166.549 204.508C166.549 206.236 165.147 207.638 163.416 207.638C161.686 207.638 160.283 206.237 160.283 204.508C160.283 202.78 161.685 201.378 163.416 201.378C165.146 201.378 166.549 202.779 166.549 204.508Z" fill="#25426B" fill-opacity="0.6"/>
<path d="M195.986 182.057C198.011 182.057 199.653 183.697 199.653 185.721C199.653 187.744 198.011 189.384 195.986 189.384C193.961 189.384 192.319 187.744 192.319 185.721C192.319 183.697 193.961 182.057 195.986 182.057Z" fill="#25426B" fill-opacity="0.6"/>
<path d="M-2.15869 148.145C-2.15869 146.638 -0.93679 145.417 0.570781 145.417C2.07835 145.417 3.30025 146.638 3.30025 148.145C3.30025 149.651 2.07835 150.872 0.570781 150.872C-0.93679 150.872 -2.15869 149.651 -2.15869 148.145Z" fill="#25426B" fill-opacity="0.6"/>
<path d="M2.44196 185.72C2.44196 186.753 1.60416 187.59 0.570704 187.59C-0.46275 187.59 -1.30176 186.753 -1.30176 185.72C-1.30176 184.687 -0.46395 183.849 0.570704 183.849C1.60416 183.849 2.44196 184.686 2.44196 185.72Z" fill="#25426B" fill-opacity="0.6"/>
<path d="M65.7086 184.189C66.5551 184.189 67.2413 184.874 67.2413 185.72C67.2413 186.566 66.5551 187.252 65.7086 187.252C64.862 187.252 64.1758 186.566 64.1758 185.72C64.1758 184.874 64.862 184.189 65.7086 184.189Z" fill="#25426B" fill-opacity="0.6"/>
<path d="M95.6987 129.356C95.6987 127.933 96.8534 126.779 98.2782 126.779C99.7029 126.779 100.858 127.933 100.858 129.356C100.858 130.78 99.7029 131.934 98.2782 131.934C96.8534 131.934 95.6987 130.78 95.6987 129.356Z" fill="#25426B" fill-opacity="0.6"/>
<path d="M65.7088 151.857C63.6563 151.857 61.9927 150.195 61.9927 148.145C61.9927 146.094 63.6563 144.432 65.7088 144.432C67.7613 144.432 69.4249 146.094 69.4249 148.145C69.4249 150.195 67.7613 151.857 65.7088 151.857Z" fill="#25426B" fill-opacity="0.6"/>
<path d="M195.986 144.139C198.2 144.139 199.995 145.932 199.995 148.144C199.995 150.357 198.2 152.15 195.986 152.15C193.771 152.15 191.977 150.357 191.977 148.144C191.977 145.932 193.771 144.139 195.986 144.139Z" fill="#25426B" fill-opacity="0.6"/>
<path d="M33.1399 126.89C34.5035 126.89 35.6089 127.994 35.6089 129.357C35.6089 130.72 34.5035 131.824 33.1399 131.824C31.7763 131.824 30.6709 130.72 30.6709 129.357C30.6709 127.994 31.7763 126.89 33.1399 126.89Z" fill="#25426B" fill-opacity="0.6"/>
<path d="M33.1398 87.7455C35.3712 87.7455 37.18 89.5528 37.18 91.7822C37.18 94.0116 35.3712 95.8188 33.1398 95.8188C30.9085 95.8188 29.0996 94.0116 29.0996 91.7822C29.0996 89.5528 30.9085 87.7455 33.1398 87.7455Z" fill="#25426B" fill-opacity="0.6"/>
<path d="M130.847 143.928C133.178 143.928 135.067 145.816 135.067 148.144C135.067 150.473 133.178 152.361 130.847 152.361C128.516 152.361 126.627 150.473 126.627 148.144C126.627 145.816 128.516 143.928 130.847 143.928Z" fill="#25426B" fill-opacity="0.6"/>
<path d="M161.864 129.356C161.864 128.5 162.559 127.805 163.416 127.805C164.273 127.805 164.968 128.5 164.968 129.356C164.968 130.213 164.273 130.907 163.416 130.907C162.559 130.908 161.864 130.214 161.864 129.356Z" fill="#25426B" fill-opacity="0.6"/>
<path d="M195.986 69.8838C197.706 69.8838 199.1 71.2766 199.1 72.9946C199.1 74.7127 197.706 76.1055 195.986 76.1055C194.267 76.1055 192.873 74.7127 192.873 72.9946C192.873 71.2766 194.267 69.8838 195.986 69.8838Z" fill="#25426B" fill-opacity="0.6"/>
<path d="M163.416 96.5371C160.788 96.5371 158.657 94.4085 158.657 91.7821C158.657 89.1558 160.788 87.0271 163.416 87.0271C166.045 87.0271 168.176 89.1558 168.176 91.7821C168.176 94.4085 166.045 96.5371 163.416 96.5371Z" fill="#25426B" fill-opacity="0.6"/>
<path d="M0.569523 78.1733C-1.42297 78.1733 -3.13339 77.0364 -4 75.3887V70.6013C-3.13219 68.9535 -1.42297 67.8167 0.569523 67.8167C3.43223 67.8167 5.7524 70.1348 5.7524 72.995C5.7524 75.8552 3.43223 78.1733 0.569523 78.1733Z" fill="#25426B" fill-opacity="0.6"/>
<path d="M33.1397 14.3966C34.3748 14.3966 35.377 15.3982 35.377 16.6324C35.377 17.8678 34.3748 18.8682 33.1397 18.8682C31.9046 18.8682 30.9023 17.8666 30.9023 16.6324C30.9023 15.3982 31.9034 14.3966 33.1397 14.3966Z" fill="#25426B" fill-opacity="0.6"/>
<path d="M65.7081 31.0047C68.1495 31.0047 70.1275 32.9822 70.1275 35.4203C70.1275 37.8584 68.1483 39.8359 65.7081 39.8359C63.2679 39.8359 61.2886 37.8596 61.2886 35.4203C61.2886 32.981 63.2679 31.0047 65.7081 31.0047Z" fill="#25426B" fill-opacity="0.6"/>
<path d="M65.7083 76.1226C63.9798 76.1226 62.5791 74.723 62.5791 72.9961C62.5791 71.2692 63.9798 69.8697 65.7083 69.8697C67.4367 69.8697 68.8374 71.2692 68.8374 72.9961C68.8386 74.7218 67.4367 76.1226 65.7083 76.1226Z" fill="#25426B" fill-opacity="0.6"/>
<path d="M98.2768 88.2231C100.244 88.2231 101.839 89.8169 101.839 91.7824C101.839 93.748 100.244 95.3418 98.2768 95.3418C96.3096 95.3418 94.7144 93.748 94.7144 91.7824C94.7144 89.8169 96.3096 88.2231 98.2768 88.2231Z" fill="#25426B" fill-opacity="0.6"/>
<path d="M134.922 72.995C134.922 75.2435 133.098 77.0664 130.847 77.0664C128.596 77.0664 126.772 75.2435 126.772 72.995C126.772 70.7464 128.596 68.9235 130.847 68.9235C133.098 68.9235 134.922 70.7464 134.922 72.995Z" fill="#25426B" fill-opacity="0.6"/>
<path d="M163.416 13.432C165.185 13.432 166.62 14.8651 166.62 16.6327C166.62 18.4004 165.185 19.8335 163.416 19.8335C161.647 19.8335 160.212 18.4004 160.212 16.6327C160.212 14.8651 161.647 13.432 163.416 13.432Z" fill="#25426B" fill-opacity="0.6"/>
<path d="M195.986 32.0409C197.854 32.0409 199.368 33.5539 199.368 35.4203C199.368 37.2868 197.854 38.7998 195.986 38.7998C194.118 38.7998 192.604 37.2868 192.604 35.4203C192.604 33.5539 194.118 32.0409 195.986 32.0409Z" fill="#25426B" fill-opacity="0.6"/>
<path d="M0.57108 37.0972C-0.355548 37.0972 -1.10693 36.3463 -1.10693 35.4203C-1.10693 34.4943 -0.355548 33.7435 0.57108 33.7435C1.49771 33.7435 2.24909 34.4943 2.24909 35.4203C2.24909 36.3463 1.49771 37.0972 0.57108 37.0972Z" fill="#25426B" fill-opacity="0.6"/>
<path d="M98.2773 20.8521C95.9452 20.8521 94.0547 18.9633 94.0547 16.6331C94.0547 14.303 95.9452 12.4142 98.2773 12.4142C100.61 12.4142 102.5 14.303 102.5 16.6331C102.501 18.9633 100.611 20.8521 98.2773 20.8521Z" fill="#25426B" fill-opacity="0.6"/>
<path d="M130.847 33.5308C131.891 33.5308 132.737 34.3766 132.737 35.4199C132.737 36.4633 131.891 37.3091 130.847 37.3091C129.803 37.3091 128.957 36.4633 128.957 35.4199C128.957 34.3766 129.803 33.5308 130.847 33.5308Z" fill="#25426B" fill-opacity="0.6"/>
<path d="M228.555 14.1349C229.935 14.1349 231.054 15.2529 231.054 16.6321C231.054 18.0113 229.935 19.1294 228.555 19.1294C227.175 19.1294 226.056 18.0113 226.056 16.6321C226.056 15.2529 227.175 14.1349 228.555 14.1349Z" fill="#25426B" fill-opacity="0.6"/>
</svg>
