<svg width="369" height="576" viewBox="0 0 369 576" fill="none" xmlns="http://www.w3.org/2000/svg">
<path d="M85.2378 352.319L85.156 352.367L47.2158 374.252V418.119L47.2976 418.167L85.2378 440.052L85.3195 440.004L123.26 418.119V374.254L123.178 374.206L85.2378 352.319ZM47.5445 374.442L85.2378 352.7L122.931 374.442V417.928L85.2378 439.67L47.5445 417.928V374.442Z" fill="#319291" fill-opacity="0.1"/>
<path d="M123.095 155.778L123.013 155.825L85.0728 177.71V221.576L85.1545 221.623L123.095 243.508L123.176 243.461L161.115 221.576V177.71L161.033 177.663L123.095 155.778ZM85.4014 177.901L123.095 156.159L160.786 177.901V221.387L123.095 243.131L85.4014 221.388V177.901Z" fill="#319291" fill-opacity="0.1"/>
<path d="M85.2378 90.2658L85.156 90.3135L47.2158 112.198V156.064L47.2976 156.111L85.2378 177.996L85.3195 177.949L123.26 156.064V112.198L123.178 112.151L85.2378 90.2658ZM47.5445 112.387L85.2378 90.6452L122.931 112.387V155.873L85.2378 177.615L47.5445 155.873V112.387Z" fill="#319291" fill-opacity="0.1"/>
<path d="M160.951 90.2658L160.87 90.3135L122.931 112.198V156.064L123.013 156.111L160.951 177.996L161.033 177.949L198.973 156.064V112.198L198.892 112.151L160.951 90.2658ZM123.26 112.387L160.951 90.6452L198.645 112.387V155.873L160.951 177.615L123.26 155.873V112.387Z" fill="#319291" fill-opacity="0.1"/>
<path d="M236.667 90.2658L236.585 90.3135L198.645 112.198V156.064L198.727 156.111L236.667 177.996L236.749 177.949L274.689 156.064V112.198L274.607 112.151L236.667 90.2658ZM198.974 112.387L236.667 90.6452L274.36 112.387V155.873L236.667 177.615L198.974 155.873V112.387Z" fill="#319291" fill-opacity="0.1"/>
<path d="M312.382 90.2658L312.3 90.3135L274.36 112.198V156.064L274.442 156.111L312.382 177.996L312.464 177.949L350.404 156.064V112.198L350.322 112.151L312.382 90.2658ZM274.689 112.387L312.382 90.6452L350.075 112.387V155.873L312.382 177.615L274.689 155.873V112.387Z" fill="#319291" fill-opacity="0.1"/>
<path d="M123.095 24.7521L123.013 24.7997L85.0728 46.6847V90.55L85.1545 90.5976L123.095 112.483L123.176 112.435L161.115 90.55V46.6847L161.033 46.637L123.095 24.7521ZM85.4014 46.8736L123.095 25.1315L160.786 46.8736V90.3594L123.095 112.103L85.4014 90.3594V46.8736Z" fill="#319291" fill-opacity="0.1"/>
<path d="M198.808 24.7521L198.726 24.7997L160.786 46.6847V90.55L160.868 90.5976L198.808 112.483L198.89 112.435L236.83 90.55V46.6847L236.748 46.637L198.808 24.7521ZM161.115 46.8736L198.808 25.1315L236.501 46.8736V90.3594L198.808 112.103L161.115 90.3594V46.8736Z" fill="#319291" fill-opacity="0.1"/>
<path d="M274.523 24.7521L274.442 24.7997L236.501 46.6847V90.55L236.583 90.5976L274.523 112.483L274.605 112.435L312.545 90.55V46.6847L312.464 46.637L274.523 24.7521ZM236.83 46.8736L274.523 25.1315L312.217 46.8736V90.3594L274.523 112.103L236.83 90.3594V46.8736Z" fill="#319291" fill-opacity="0.1"/>
<path d="M47.5445 0.272518V24.8457L85.2378 46.5895L122.931 24.8457V0.272518H123.26V25.0363L85.3195 46.9213L85.2378 46.9689L47.2976 25.0839L47.2158 25.0363V0.272518H47.5445Z" fill="#319291" fill-opacity="0.1"/>
<path d="M123.26 0.272518V24.8457L160.951 46.5895L198.645 24.8457V0.272518H198.973V25.0363L161.033 46.9213L160.951 46.9689L123.013 25.0839L122.931 25.0363V0.272518H123.26Z" fill="#319291" fill-opacity="0.1"/>
<path d="M198.974 0.272518V24.8457L236.667 46.5895L274.36 24.8457V0.272518H274.689V25.0363L236.749 46.9213L236.667 46.9689L198.727 25.0839L198.645 25.0363V0.272518H198.974Z" fill="#319291" fill-opacity="0.1"/>
<path d="M274.689 0.272518V24.8457L312.382 46.5895L350.075 24.8457V0.272518H350.404V25.0363L312.464 46.9213L312.382 46.9689L274.442 25.0839L274.36 25.0363V0.272518H274.689Z" fill="#319291" fill-opacity="0.1"/>
<path d="M0 353.628L0 351.651L23.0672 338.344V282.409L0 269.102L0 267.125L24.782 281.421V339.331L0 353.628Z" fill="#319291" fill-opacity="0.1"/>
<path d="M73.2647 252.466L23.0688 281.421V339.331L73.2647 368.285L123.461 339.331V281.421L73.2647 252.466ZM24.7819 282.409L73.2647 254.443L121.746 282.409V338.342L73.2647 366.308L24.7819 338.342V282.409Z" fill="#319291" fill-opacity="0.1"/>
<path d="M171.942 252.466L121.746 281.421V339.331L171.942 368.285L222.138 339.331V281.421L171.942 252.466ZM123.459 282.409L171.94 254.443L220.421 282.409V338.342L171.94 366.308L123.459 338.342V282.409Z" fill="#319291" fill-opacity="0.1"/>
<path d="M23.9255 282.904L0 269.102L0 267.125L23.9255 280.927L72.4065 252.961V197.028L23.9255 169.061L0 182.862L0 180.885L23.9255 167.085L74.1213 196.04V253.95L23.9255 282.904Z" fill="#319291" fill-opacity="0.1"/>
<path d="M122.602 167.085L72.4062 196.04V253.95L122.602 282.904L172.798 253.95V196.04L122.602 167.085ZM74.1211 197.028L122.602 169.062L171.085 197.028V252.961L122.602 280.927L74.1211 252.961V197.028Z" fill="#319291" fill-opacity="0.1"/>
<path d="M221.281 167.085L171.085 196.04V253.95L221.281 282.904L271.477 253.95V196.04L221.281 167.085ZM172.799 197.028L221.28 169.062L269.761 197.028V252.961L221.28 280.927L172.799 252.961V197.028Z" fill="#319291" fill-opacity="0.1"/>
<path d="M0 182.862L0 180.885L23.0672 167.579V111.645L0 98.3388L0 96.3617L24.782 110.657V168.567L0 182.862Z" fill="#319291" fill-opacity="0.1"/>
<path d="M73.2647 81.7026L23.0688 110.657V168.567L73.2647 197.521L123.461 168.567V110.657L73.2647 81.7026ZM24.7819 111.645L73.2647 83.6797L121.746 111.645V167.579L73.2647 195.544L24.7819 167.579V111.645Z" fill="#319291" fill-opacity="0.1"/>
<path d="M171.941 81.7026L121.746 110.657V168.567L171.941 197.521L222.137 168.567V110.657L171.941 81.7026ZM123.459 111.645L171.94 83.6797L220.421 111.645V167.579L171.94 195.544L123.459 167.579V111.645Z" fill="#319291" fill-opacity="0.1"/>
<path d="M0 10.1219L17.0731 0.272495H20.4993L0 12.0988L0 10.1219Z" fill="#319291" fill-opacity="0.1"/>
<path d="M23.9255 112.139L0 98.3389L0 96.3619L23.9255 110.164L72.4065 82.1961V26.2629L27.3517 0.272476H30.7779L74.1213 25.2744V83.1847L23.9255 112.139Z" fill="#319291" fill-opacity="0.1"/>
<path d="M119.176 0.272476L74.1211 26.2629V82.1961L122.602 110.164L171.085 82.1961V26.2629L126.028 0.272476H129.455L172.798 25.2744V83.1847L122.602 112.139L72.4062 83.1847V25.2744L115.75 0.272476H119.176Z" fill="#319291" fill-opacity="0.1"/>
<path d="M217.855 0.272476L172.799 26.2629V82.1961L221.281 110.164L269.762 82.1961V26.2629L224.706 0.272476H228.134L271.475 25.2744V83.1847L221.281 112.139L171.085 83.1847V25.2744L214.429 0.272476H217.855Z" fill="#319291" fill-opacity="0.1"/>
<path d="M0 12.0987L0 10.1217L17.0731 0.272343H20.4993L0 12.0987Z" fill="#319291" fill-opacity="0.1"/>
<path d="M30.778 0.272526L73.2649 24.7811L115.75 0.272526H119.178L73.2649 26.7581L27.3501 0.272526H30.778Z" fill="#319291" fill-opacity="0.1"/>
<path d="M129.455 0.272526L171.941 24.7811L214.427 0.272526H217.855L171.941 26.7581L126.028 0.272526H129.455Z" fill="#319291" fill-opacity="0.1"/>
<path d="M228.133 0.272526L270.619 24.7811L313.106 0.272526H316.532L270.619 26.7581L224.706 0.272526H228.133Z" fill="#319291" fill-opacity="0.1"/>
<path d="M123.094 415.302C124.598 415.302 125.817 416.52 125.817 418.023C125.817 419.526 124.598 420.744 123.094 420.744C121.591 420.744 120.372 419.526 120.372 418.023C120.372 416.52 121.591 415.302 123.094 415.302Z" fill="#319291" fill-opacity="0.1"/>
<path d="M350.239 504.914C350.492 504.914 350.698 505.12 350.698 505.374C350.698 505.628 350.492 505.834 350.239 505.834C349.985 505.834 349.779 505.628 349.779 505.374C349.779 505.12 349.985 504.914 350.239 504.914Z" fill="#319291" fill-opacity="0.1"/>
<path d="M85.2363 355.989C83.3137 355.989 81.7539 354.431 81.7539 352.51C81.7539 350.589 83.3137 349.03 85.2363 349.03C87.1589 349.03 88.7187 350.589 88.7187 352.51C88.7187 354.431 87.1606 355.989 85.2363 355.989Z" fill="#319291" fill-opacity="0.1"/>
<path d="M47.3791 372.157C48.5895 372.157 49.5707 373.137 49.5707 374.347C49.5707 375.556 48.5895 376.537 47.3791 376.537C46.1687 376.537 45.1875 375.556 45.1875 374.347C45.1875 373.137 46.1687 372.157 47.3791 372.157Z" fill="#319291" fill-opacity="0.1"/>
<path d="M47.3795 416.361C48.2974 416.361 49.0433 417.104 49.0433 418.023C49.0433 418.94 48.2991 419.684 47.3795 419.684C46.46 419.684 45.7158 418.94 45.7158 418.023C45.7158 417.104 46.4617 416.361 47.3795 416.361Z" fill="#319291" fill-opacity="0.1"/>
<path d="M85.2362 434.774C88.0482 434.774 90.3278 437.051 90.3278 439.861C90.3278 442.67 88.0482 444.948 85.2362 444.948C82.4241 444.948 80.1445 442.67 80.1445 439.861C80.1445 437.051 82.4241 434.774 85.2362 434.774Z" fill="#319291" fill-opacity="0.1"/>
<path d="M123.095 370.071C125.458 370.071 127.374 371.986 127.374 374.347C127.374 376.709 125.458 378.623 123.095 378.623C120.731 378.623 118.815 376.709 118.815 374.347C118.815 371.986 120.731 370.071 123.095 370.071Z" fill="#319291" fill-opacity="0.1"/>
<path d="M85.2362 225.467C83.0344 225.467 81.248 223.684 81.248 221.482C81.248 219.28 83.0327 217.497 85.2362 217.497C87.438 217.497 89.2243 219.28 89.2243 221.482C89.2243 223.684 87.4397 225.467 85.2362 225.467Z" fill="#319291" fill-opacity="0.1"/>
<path d="M47.3796 242.968C47.5733 242.968 47.7304 243.125 47.7304 243.319C47.7304 243.513 47.5733 243.67 47.3796 243.67C47.1859 243.67 47.0288 243.513 47.0288 243.319C47.0288 243.125 47.1859 242.968 47.3796 242.968Z" fill="#319291" fill-opacity="0.1"/>
<path d="M47.3795 283.82C49.1353 283.82 50.5588 285.242 50.5588 286.996C50.5588 288.75 49.1353 290.172 47.3795 290.172C45.6236 290.172 44.2002 288.75 44.2002 286.996C44.2002 285.242 45.6236 283.82 47.3795 283.82Z" fill="#319291" fill-opacity="0.1"/>
<path d="M85.236 311.572C83.7222 311.572 82.4961 310.346 82.4961 308.834C82.4961 307.322 83.7239 306.096 85.236 306.096C86.7499 306.096 87.976 307.323 87.976 308.834C87.9777 310.346 86.7499 311.572 85.236 311.572Z" fill="#319291" fill-opacity="0.1"/>
<path d="M158.472 221.482C158.472 220.114 159.582 219.004 160.951 219.004C162.32 219.004 163.43 220.114 163.43 221.482C163.43 222.85 162.32 223.959 160.951 223.959C159.582 223.959 158.472 222.85 158.472 221.482Z" fill="#319291" fill-opacity="0.1"/>
<path d="M123.095 238.496C125.761 238.496 127.922 240.655 127.922 243.319C127.922 245.984 125.761 248.143 123.095 248.143C120.428 248.143 118.267 245.984 118.267 243.319C118.267 240.657 120.428 238.496 123.095 238.496Z" fill="#319291" fill-opacity="0.1"/>
<path d="M160.951 173.709C163.216 173.709 165.052 175.543 165.052 177.808C165.052 180.07 163.216 181.904 160.951 181.904C158.687 181.904 156.849 180.07 156.849 177.808C156.851 175.543 158.687 173.709 160.951 173.709Z" fill="#319291" fill-opacity="0.1"/>
<path d="M238.615 177.805C238.615 178.881 237.743 179.752 236.667 179.752C235.591 179.752 234.719 178.881 234.719 177.805C234.719 176.73 235.591 175.859 236.667 175.859C237.743 175.859 238.615 176.732 238.615 177.805Z" fill="#319291" fill-opacity="0.1"/>
<path d="M274.524 152.201C276.606 152.201 278.294 153.887 278.294 155.968C278.294 158.049 276.606 159.735 274.524 159.735C272.441 159.735 270.753 158.049 270.753 155.968C270.755 153.887 272.443 152.201 274.524 152.201Z" fill="#319291" fill-opacity="0.1"/>
<path d="M316.023 177.806C316.023 179.815 314.393 181.443 312.382 181.443C310.371 181.443 308.741 179.815 308.741 177.806C308.741 175.796 310.371 174.168 312.382 174.168C314.393 174.168 316.023 175.796 316.023 177.806Z" fill="#319291" fill-opacity="0.1"/>
<path d="M350.239 151.71C352.592 151.71 354.501 153.616 354.501 155.969C354.501 158.32 352.594 160.227 350.239 160.227C347.886 160.227 345.977 158.322 345.977 155.969C345.978 153.617 347.886 151.71 350.239 151.71Z" fill="#319291" fill-opacity="0.1"/>
<path d="M85.2358 88.0004C86.592 88.0004 87.6914 89.099 87.6914 90.4542C87.6914 91.8095 86.592 92.9081 85.2358 92.9081C83.8797 92.9081 82.7803 91.8095 82.7803 90.4542C82.7803 89.099 83.8797 88.0004 85.2358 88.0004Z" fill="#319291" fill-opacity="0.1"/>
<path d="M47.3792 110.331C48.4626 110.331 49.3409 111.209 49.3409 112.292C49.3409 113.374 48.4626 114.252 47.3792 114.252C46.2958 114.252 45.4175 113.374 45.4175 112.292C45.4175 111.209 46.2958 110.331 47.3792 110.331Z" fill="#319291" fill-opacity="0.1"/>
<path d="M46.4497 155.968C46.4497 155.456 46.8652 155.039 47.3795 155.039C47.892 155.039 48.3093 155.454 48.3093 155.968C48.3093 156.48 47.8938 156.897 47.3795 156.897C46.8669 156.897 46.4497 156.48 46.4497 155.968Z" fill="#319291" fill-opacity="0.1"/>
<path d="M85.2362 173.96C87.3617 173.96 89.0847 175.682 89.0847 177.806C89.0847 179.929 87.3617 181.651 85.2362 181.651C83.1107 181.651 81.3877 179.929 81.3877 177.806C81.3877 175.682 83.1107 173.96 85.2362 173.96Z" fill="#319291" fill-opacity="0.1"/>
<path d="M119.922 112.292C119.922 110.541 121.343 109.122 123.095 109.122C124.847 109.122 126.267 110.541 126.267 112.292C126.267 114.043 124.847 115.462 123.095 115.462C121.343 115.462 119.922 114.043 119.922 112.292Z" fill="#319291" fill-opacity="0.1"/>
<path d="M125.27 155.968C125.27 157.169 124.296 158.143 123.093 158.143C121.891 158.143 120.917 157.169 120.917 155.968C120.917 154.767 121.891 153.793 123.093 153.793C124.296 153.793 125.27 154.767 125.27 155.968Z" fill="#319291" fill-opacity="0.1"/>
<path d="M198.81 157.748C197.826 157.748 197.029 156.95 197.029 155.968C197.029 154.984 197.826 154.188 198.81 154.188C199.794 154.188 200.591 154.984 200.591 155.968C200.591 156.952 199.793 157.748 198.81 157.748Z" fill="#319291" fill-opacity="0.1"/>
<path d="M233.668 90.4547C233.668 88.8009 235.01 87.4602 236.667 87.4602C238.324 87.4602 239.664 88.8009 239.664 90.4547C239.664 92.1084 238.322 93.4508 236.667 93.4508C235.012 93.4508 233.668 92.1084 233.668 90.4547Z" fill="#319291" fill-opacity="0.1"/>
<path d="M198.81 116.608C196.424 116.608 194.491 114.677 194.491 112.294C194.491 109.91 196.424 107.979 198.81 107.979C201.195 107.979 203.128 109.91 203.128 112.294C203.128 114.675 201.194 116.608 198.81 116.608Z" fill="#319291" fill-opacity="0.1"/>
<path d="M350.239 107.637C352.812 107.637 354.899 109.721 354.899 112.294C354.899 114.865 352.813 116.95 350.239 116.95C347.664 116.95 345.58 114.866 345.58 112.294C345.58 109.721 347.666 107.637 350.239 107.637Z" fill="#319291" fill-opacity="0.1"/>
<path d="M158.082 90.4546C158.082 88.8706 159.366 87.5877 160.951 87.5877C162.537 87.5877 163.821 88.8723 163.821 90.4546C163.821 92.0386 162.537 93.3214 160.951 93.3214C159.366 93.3214 158.082 92.0386 158.082 90.4546Z" fill="#319291" fill-opacity="0.1"/>
<path d="M160.951 42.0875C163.545 42.0875 165.648 44.1887 165.648 46.7799C165.648 49.3711 163.545 51.4724 160.951 51.4724C158.358 51.4724 156.255 49.3711 156.255 46.7799C156.255 44.187 158.358 42.0875 160.951 42.0875Z" fill="#319291" fill-opacity="0.1"/>
<path d="M274.523 107.392C277.232 107.392 279.428 109.586 279.428 112.292C279.428 114.998 277.232 117.192 274.523 117.192C271.815 117.192 269.619 114.998 269.619 112.292C269.619 109.586 271.815 107.392 274.523 107.392Z" fill="#319291" fill-opacity="0.1"/>
<path d="M312.382 88.6522C313.378 88.6522 314.185 89.459 314.185 90.4542C314.185 91.4495 313.378 92.2563 312.382 92.2563C311.386 92.2563 310.579 91.4495 310.579 90.4542C310.579 89.459 311.386 88.6522 312.382 88.6522Z" fill="#319291" fill-opacity="0.1"/>
<path d="M350.239 21.3254C352.238 21.3254 353.857 22.9434 353.857 24.9409C353.857 26.9383 352.238 28.5563 350.239 28.5563C348.241 28.5563 346.62 26.9383 346.62 24.9409C346.62 22.9451 348.241 21.3254 350.239 21.3254Z" fill="#319291" fill-opacity="0.1"/>
<path d="M312.382 41.2521C315.437 41.2521 317.913 43.7262 317.913 46.7782C317.913 49.8302 315.437 52.3044 312.382 52.3044C309.327 52.3044 306.851 49.8302 306.851 46.7782C306.851 43.7262 309.327 41.2521 312.382 41.2521Z" fill="#319291" fill-opacity="0.1"/>
<path d="M48.1032 24.9409C48.1032 25.3408 47.7797 25.6658 47.3795 25.6658C46.9793 25.6658 46.6558 25.3425 46.6558 24.9409C46.6558 24.541 46.9793 24.2159 47.3795 24.2159C47.7797 24.2159 48.1032 24.541 48.1032 24.9409Z" fill="#319291" fill-opacity="0.1"/>
<path d="M85.2362 49.1362C83.9335 49.1362 82.876 48.0812 82.876 46.7777C82.876 45.4759 83.9318 44.4191 85.2362 44.4191C86.5389 44.4191 87.5964 45.4742 87.5964 46.7777C87.5964 48.0812 86.5406 49.1362 85.2362 49.1362Z" fill="#319291" fill-opacity="0.1"/>
<path d="M123.095 30.9604C119.767 30.9604 117.07 28.2654 117.07 24.9409C117.07 21.6164 119.767 18.9214 123.095 18.9214C126.422 18.9214 129.119 21.6164 129.119 24.9409C129.118 28.2654 126.42 30.9604 123.095 30.9604Z" fill="#319291" fill-opacity="0.1"/>
<path d="M198.81 28.5751C196.8 28.5751 195.172 26.9469 195.172 24.9409C195.172 22.9333 196.8 21.3068 198.81 21.3068C200.819 21.3068 202.447 22.9333 202.447 24.9409C202.447 26.9486 200.817 28.5751 198.81 28.5751Z" fill="#319291" fill-opacity="0.1"/>
<path d="M236.667 42.6424C238.954 42.6424 240.808 44.4952 240.808 46.7802C240.808 49.0651 238.954 50.918 236.667 50.918C234.38 50.918 232.525 49.0651 232.525 46.7802C232.525 44.4935 234.38 42.6424 236.667 42.6424Z" fill="#319291" fill-opacity="0.1"/>
<path d="M279.261 24.941C279.261 27.5543 277.141 29.6725 274.525 29.6725C271.91 29.6725 269.79 27.5543 269.79 24.941C269.79 22.3276 271.91 20.2094 274.525 20.2094C277.141 20.2094 279.261 22.3276 279.261 24.941Z" fill="#319291" fill-opacity="0.1"/>
<path d="M6.28364 575.768V529.558L0 525.932V525.47L6.58505 529.269L6.68552 529.327V575.768H6.28364Z" fill="#319291" fill-opacity="0.1"/>
<path d="M6.58505 369.692L6.48458 369.75L0 366.009L0 365.546L6.48458 369.285L52.4896 342.749V289.672L6.48458 263.134L0 266.874L0 266.411L6.38411 262.727L6.48458 262.671L52.7894 289.381L52.8898 289.439V342.98L6.58505 369.692Z" fill="#319291" fill-opacity="0.1"/>
<path d="M0 266.874L0 266.411L6.28364 262.787V209.71L0 206.085L0 205.622L6.58505 209.419L6.68552 209.477V263.018L0 266.874Z" fill="#319291" fill-opacity="0.1"/>
<path d="M52.6889 182.708L52.5885 182.765L6.28369 209.477V263.018L6.38416 263.076L52.6889 289.788L52.7894 289.73L99.0959 263.018V209.477L98.9954 209.419L52.6889 182.708ZM6.68557 209.71L52.6906 183.172L98.6974 209.71V262.787L52.6906 289.325L6.68557 262.787V209.71Z" fill="#319291" fill-opacity="0.1"/>
<path d="M145.103 182.708L145.002 182.765L98.6958 209.477V263.018L98.7963 263.076L145.103 289.788L145.203 289.73L191.51 263.018V209.477L191.409 209.419L145.103 182.708ZM99.0977 209.71L145.104 183.172L191.111 209.71V262.787L145.104 289.325L99.0977 262.787V209.71Z" fill="#319291" fill-opacity="0.1"/>
<path d="M237.516 182.708L237.416 182.765L191.109 209.477V263.018L191.21 263.076L237.516 289.788L237.617 289.73L283.923 263.018V209.477L283.823 209.419L237.516 182.708ZM191.51 209.71L237.516 183.172L283.523 209.71V262.787L237.516 289.325L191.51 262.787V209.71Z" fill="#319291" fill-opacity="0.1"/>
<path d="M6.58505 209.768L6.48458 209.826L0 206.085L0 205.622L6.48458 209.361L52.4896 182.823V129.747L6.48458 103.21L0 106.95L0 106.487L6.38411 102.803L6.48458 102.745L52.7894 129.457L52.8898 129.515V183.056L6.58505 209.768Z" fill="#319291" fill-opacity="0.1"/>
<path d="M98.8967 102.745L98.7962 102.803L52.4897 129.515V183.056L52.5902 183.114L98.8967 209.826L98.9972 209.768L145.304 183.056V129.515L145.203 129.457L98.8967 102.745ZM52.8899 129.747L98.8967 103.208L144.903 129.747V182.823L98.8967 209.361L52.8899 182.823V129.747Z" fill="#319291" fill-opacity="0.1"/>
<path d="M191.31 102.745L191.21 102.803L144.903 129.515V183.056L145.004 183.114L191.31 209.826L191.411 209.768L237.717 183.056V129.515L237.617 129.457L191.31 102.745ZM145.303 129.747L191.31 103.208L237.317 129.747V182.823L191.31 209.361L145.303 182.823V129.747Z" fill="#319291" fill-opacity="0.1"/>
<path d="M0 106.95L0 106.487L6.28364 102.861V49.7845L0 46.1605L0 45.6978L6.58505 49.4953L6.68552 49.5532V103.094L0 106.95Z" fill="#319291" fill-opacity="0.1"/>
<path d="M52.6889 22.7834L52.5885 22.8413L6.28369 49.5531V103.093L6.38416 103.15L52.6889 129.862L52.7894 129.804L99.0959 103.093V49.5531L98.9954 49.4953L52.6889 22.7834ZM6.68557 49.7845L52.6906 23.2462L98.6974 49.7845V102.861L52.6906 129.399L6.68557 102.861V49.7845Z" fill="#319291" fill-opacity="0.1"/>
<path d="M145.103 22.7834L145.002 22.8413L98.6958 49.5531V103.093L98.7963 103.15L145.103 129.862L145.203 129.804L191.51 103.093V49.5531L191.409 49.4953L145.103 22.7834ZM99.0977 49.7845L145.104 23.2462L191.111 49.7845V102.861L145.104 129.399L99.0977 102.861V49.7845Z" fill="#319291" fill-opacity="0.1"/>
<path d="M237.516 22.7834L237.416 22.8413L191.109 49.5531V103.093L191.21 103.15L237.516 129.862L237.617 129.804L283.923 103.093V49.5531L283.823 49.4953L237.516 22.7834ZM191.51 49.7845L237.516 23.2462L283.523 49.7845V102.861L237.516 129.399L191.51 102.861V49.7845Z" fill="#319291" fill-opacity="0.1"/>
<path d="M6.58505 49.844L6.48458 49.9019L0 46.1605L0 45.6978L6.48458 49.4374L52.4896 22.8991V7.50322H52.8898V23.1305L6.58505 49.844Z" fill="#319291" fill-opacity="0.1"/>
<path d="M52.8899 7.50322V22.8991L98.8967 49.4374L144.902 22.8991V7.50322H145.304V23.1305L98.9972 49.844L98.8967 49.9019L52.5885 23.19L52.4897 23.1305V7.50322H52.8899Z" fill="#319291" fill-opacity="0.1"/>
<path d="M145.304 7.50322V22.8991L191.31 49.4374L237.316 22.8991V7.50322H237.717V23.1305L191.411 49.844L191.31 49.9019L145.002 23.19L144.902 23.1305V7.50322H145.304Z" fill="#319291" fill-opacity="0.1"/>
<path d="M237.717 7.50322V22.8991L283.724 49.4374L329.729 22.8991V7.50322H330.131V23.1305L283.823 49.844L283.724 49.9019L237.416 23.19L237.315 23.1305V7.50322H237.717Z" fill="#319291" fill-opacity="0.1"/>
<path d="M0 490.702L0 488.287L4.83789 485.497V417.229L0 414.439L0 412.024L6.92903 416.023V486.703L0 490.702Z" fill="#319291" fill-opacity="0.1"/>
<path d="M66.1042 380.681L4.83789 416.023V486.703L66.1042 522.045L127.37 486.705V416.023L66.1042 380.681ZM6.92903 417.229L66.1025 383.096L125.276 417.229V485.497L66.1042 519.632L6.93073 485.499V417.229H6.92903Z" fill="#319291" fill-opacity="0.1"/>
<path d="M5.88346 417.831L0 414.437L0 412.024L5.88346 415.419L65.0586 381.285V313.015L5.88346 278.882L0 282.276L0 279.864L5.88346 276.469L67.1497 311.809V382.492L5.88346 417.831Z" fill="#319291" fill-opacity="0.1"/>
<path d="M126.323 276.469L65.0566 311.809V382.492L126.323 417.831L187.589 382.492V311.811L126.323 276.469ZM67.1495 313.015L126.323 278.882L185.496 313.015V381.285L126.323 415.419L67.1495 381.285V313.015Z" fill="#319291" fill-opacity="0.1"/>
<path d="M0 282.276L0 279.864L4.83789 277.073V208.803L0 206.013L0 203.6L6.92903 207.597V278.28L0 282.276Z" fill="#319291" fill-opacity="0.1"/>
<path d="M66.1042 172.258L4.83789 207.597V278.278L66.1042 313.618L127.37 278.278V207.597L66.1042 172.258ZM6.92903 208.803L66.1025 174.67L125.276 208.803V277.074L66.1025 311.207L6.92903 277.074V208.803Z" fill="#319291" fill-opacity="0.1"/>
<path d="M5.88346 209.407L0 206.013L0 203.6L5.88346 206.995L65.0586 172.86V104.591L5.88346 70.4563L0 73.8507L0 71.4381L5.88346 68.0455L67.1497 103.385V174.066L5.88346 209.407Z" fill="#319291" fill-opacity="0.1"/>
<path d="M126.323 68.0455L65.0566 103.385V174.066L126.323 209.406L187.589 174.066V103.385L126.323 68.0455ZM67.1495 104.591L126.323 70.4581L185.496 104.591V172.86L126.323 206.993L67.1495 172.86V104.591Z" fill="#319291" fill-opacity="0.1"/>
<path d="M0 73.8507L0 71.4381L4.83789 68.6478V7.50326H6.92903V69.8541L0 73.8507Z" fill="#319291" fill-opacity="0.1"/>
<path d="M6.92903 7.50307V68.6476L66.1042 102.781L125.278 68.6476V7.50307H127.37V69.854L66.1042 105.194L4.83789 69.854V7.50307H6.92903Z" fill="#319291" fill-opacity="0.1"/>
<path d="M127.37 7.50307V68.6476L186.544 102.781L245.717 68.6476V7.50307H247.81V69.854L186.544 105.194L125.277 69.854V7.50307H127.37Z" fill="#319291" fill-opacity="0.1"/>
<path d="M247.81 7.50337V68.6479L306.984 102.781L366.157 68.6479V0.272438H368.25V69.8543L306.984 105.194L245.717 69.8543V7.50337H247.81Z" fill="#319291" fill-opacity="0.1"/>
<path d="M6.48446 524.223C9.36914 524.223 11.7072 526.559 11.7072 529.441C11.7072 532.323 9.36914 534.659 6.48446 534.659C3.59978 534.659 1.26172 532.323 1.26172 529.441C1.26172 526.559 3.59978 524.223 6.48446 524.223Z" fill="#319291" fill-opacity="0.1"/>
<path d="M49.6646 342.865C49.6646 341.194 51.02 339.841 52.6906 339.841C54.3611 339.841 55.7166 341.196 55.7166 342.865C55.7166 344.535 54.3611 345.888 52.6906 345.888C51.02 345.888 49.6646 344.534 49.6646 342.865Z" fill="#319291" fill-opacity="0.1"/>
<path d="M6.48475 363.63C9.73896 363.63 12.3767 366.265 12.3767 369.517C12.3767 372.768 9.73896 375.404 6.48475 375.404C3.23054 375.404 0.592774 372.768 0.592774 369.517C0.591071 366.267 3.22884 363.63 6.48475 363.63Z" fill="#319291" fill-opacity="0.1"/>
<path d="M52.6906 284.554C55.4543 284.554 57.697 286.793 57.697 289.555C57.697 292.316 55.456 294.557 52.6906 294.557C49.9251 294.557 47.6841 292.318 47.6841 289.555C47.6841 286.793 49.9251 284.554 52.6906 284.554Z" fill="#319291" fill-opacity="0.1"/>
<path d="M147.481 289.556C147.481 290.868 146.417 291.932 145.104 291.932C143.791 291.932 142.727 290.868 142.727 289.556C142.727 288.244 143.791 287.181 145.104 287.181C146.417 287.179 147.481 288.242 147.481 289.556Z" fill="#319291" fill-opacity="0.1"/>
<path d="M191.311 258.305C193.852 258.305 195.912 260.364 195.912 262.902C195.912 265.441 193.852 267.5 191.311 267.5C188.769 267.5 186.709 265.441 186.709 262.902C186.709 260.364 188.769 258.305 191.311 258.305Z" fill="#319291" fill-opacity="0.1"/>
<path d="M241.961 289.557C241.961 292.008 239.972 293.997 237.516 293.997C235.062 293.997 233.072 292.01 233.072 289.557C233.072 287.105 235.061 285.116 237.516 285.116C239.97 285.116 241.961 287.103 241.961 289.557Z" fill="#319291" fill-opacity="0.1"/>
<path d="M283.724 257.705C286.597 257.705 288.926 260.032 288.926 262.903C288.926 265.773 286.597 268.1 283.724 268.1C280.851 268.1 278.521 265.773 278.521 262.903C278.521 260.032 280.851 257.705 283.724 257.705Z" fill="#319291" fill-opacity="0.1"/>
<path d="M2.6123 209.593C2.6123 207.456 4.34584 205.724 6.48466 205.724C8.62348 205.724 10.357 207.456 10.357 209.593C10.357 211.73 8.62348 213.462 6.48466 213.462C4.34584 213.462 2.6123 211.73 2.6123 209.593Z" fill="#319291" fill-opacity="0.1"/>
<path d="M9.13941 262.902C9.13941 264.367 7.9508 265.555 6.48462 265.555C5.01844 265.555 3.82812 264.367 3.82812 262.902C3.82812 261.437 5.01674 260.247 6.48462 260.247C7.9508 260.247 9.13941 261.435 9.13941 262.902Z" fill="#319291" fill-opacity="0.1"/>
<path d="M98.8967 260.729C100.098 260.729 101.071 261.702 101.071 262.902C101.071 264.102 100.098 265.075 98.8967 265.075C97.6958 265.075 96.7222 264.102 96.7222 262.902C96.7222 261.702 97.6958 260.729 98.8967 260.729Z" fill="#319291" fill-opacity="0.1"/>
<path d="M141.445 182.939C141.445 180.919 143.083 179.282 145.104 179.282C147.126 179.282 148.764 180.919 148.764 182.939C148.764 184.958 147.126 186.595 145.104 186.595C143.083 186.595 141.445 184.958 141.445 182.939Z" fill="#319291" fill-opacity="0.1"/>
<path d="M98.8966 214.86C95.9847 214.86 93.6245 212.502 93.6245 209.593C93.6245 206.683 95.9847 204.325 98.8966 204.325C101.809 204.325 104.169 206.683 104.169 209.593C104.169 212.502 101.809 214.86 98.8966 214.86Z" fill="#319291" fill-opacity="0.1"/>
<path d="M283.724 203.91C286.865 203.91 289.411 206.454 289.411 209.593C289.411 212.731 286.865 215.276 283.724 215.276C280.583 215.276 278.036 212.731 278.036 209.593C278.036 206.454 280.583 203.91 283.724 203.91Z" fill="#319291" fill-opacity="0.1"/>
<path d="M52.6908 179.439C54.6254 179.439 56.1936 181.006 56.1936 182.939C56.1936 184.872 54.6254 186.439 52.6908 186.439C50.7563 186.439 49.188 184.872 49.188 182.939C49.188 181.006 50.7563 179.439 52.6908 179.439Z" fill="#319291" fill-opacity="0.1"/>
<path d="M52.6909 123.904C55.8565 123.904 58.4228 126.468 58.4228 129.631C58.4228 132.794 55.8565 135.358 52.6909 135.358C49.5252 135.358 46.959 132.794 46.959 129.631C46.959 126.468 49.5252 123.904 52.6909 123.904Z" fill="#319291" fill-opacity="0.1"/>
<path d="M191.31 203.611C194.617 203.611 197.297 206.289 197.297 209.593C197.297 212.897 194.617 215.575 191.31 215.575C188.003 215.575 185.323 212.897 185.323 209.593C185.323 206.289 188.003 203.611 191.31 203.611Z" fill="#319291" fill-opacity="0.1"/>
<path d="M235.314 182.938C235.314 181.723 236.3 180.738 237.516 180.738C238.732 180.738 239.718 181.723 239.718 182.938C239.718 184.153 238.732 185.139 237.516 185.139C236.3 185.14 235.314 184.155 235.314 182.938Z" fill="#319291" fill-opacity="0.1"/>
<path d="M283.724 98.5635C286.164 98.5635 288.141 100.539 288.141 102.977C288.141 105.414 286.164 107.39 283.724 107.39C281.284 107.39 279.307 105.414 279.307 102.977C279.307 100.539 281.284 98.5635 283.724 98.5635Z" fill="#319291" fill-opacity="0.1"/>
<path d="M237.517 136.377C233.787 136.377 230.765 133.357 230.765 129.631C230.765 125.905 233.787 122.885 237.517 122.885C241.246 122.885 244.269 125.905 244.269 129.631C244.269 133.357 241.246 136.377 237.517 136.377Z" fill="#319291" fill-opacity="0.1"/>
<path d="M6.48287 110.323C3.65609 110.323 1.22948 108.71 0 106.373L0 99.5808C1.23118 97.2431 3.65609 95.6302 6.48287 95.6302C10.5442 95.6302 13.8359 98.919 13.8359 102.977C13.8359 107.035 10.5442 110.323 6.48287 110.323Z" fill="#319291" fill-opacity="0.1"/>
<path d="M52.6908 19.8434C54.443 19.8434 55.8649 21.2641 55.8649 23.0148C55.8649 24.7672 54.443 26.1862 52.6908 26.1862C50.9385 26.1862 49.5166 24.7655 49.5166 23.0148C49.5166 21.2641 50.9368 19.8434 52.6908 19.8434Z" fill="#319291" fill-opacity="0.1"/>
<path d="M98.8965 43.4045C102.36 43.4045 105.166 46.2101 105.166 49.669C105.166 53.1279 102.358 55.9335 98.8965 55.9335C95.4345 55.9335 92.6265 53.1296 92.6265 49.669C92.6265 46.2084 95.4345 43.4045 98.8965 43.4045Z" fill="#319291" fill-opacity="0.1"/>
<path d="M98.8964 107.414C96.4443 107.414 94.457 105.429 94.457 102.979C94.457 100.529 96.4443 98.5431 98.8964 98.5431C101.349 98.5431 103.336 100.529 103.336 102.979C103.338 105.427 101.349 107.414 98.8964 107.414Z" fill="#319291" fill-opacity="0.1"/>
<path d="M145.102 124.581C147.894 124.581 150.157 126.842 150.157 129.631C150.157 132.42 147.894 134.681 145.102 134.681C142.311 134.681 140.048 132.42 140.048 129.631C140.048 126.842 142.311 124.581 145.102 124.581Z" fill="#319291" fill-opacity="0.1"/>
<path d="M197.091 102.977C197.091 106.167 194.503 108.753 191.31 108.753C188.117 108.753 185.529 106.167 185.529 102.977C185.529 99.7867 188.117 97.2006 191.31 97.2006C194.503 97.2006 197.091 99.7867 197.091 102.977Z" fill="#319291" fill-opacity="0.1"/>
<path d="M237.516 18.474C240.026 18.474 242.061 20.5072 242.061 23.0151C242.061 25.5229 240.026 27.556 237.516 27.556C235.006 27.556 232.971 25.5229 232.971 23.0151C232.971 20.5072 235.006 18.474 237.516 18.474Z" fill="#319291" fill-opacity="0.1"/>
<path d="M283.724 44.8745C286.374 44.8745 288.523 47.0211 288.523 49.669C288.523 52.3169 286.374 54.4635 283.724 54.4635C281.074 54.4635 278.925 52.3169 278.925 49.669C278.925 47.0211 281.074 44.8745 283.724 44.8745Z" fill="#319291" fill-opacity="0.1"/>
<path d="M6.48463 52.0475C5.17001 52.0475 4.104 50.9822 4.104 49.6685C4.104 48.3548 5.17001 47.2895 6.48463 47.2895C7.79926 47.2895 8.86526 48.3548 8.86526 49.6685C8.86526 50.9822 7.79926 52.0475 6.48463 52.0475Z" fill="#319291" fill-opacity="0.1"/>
<path d="M145.103 29.0004C141.794 29.0004 139.112 26.3207 139.112 23.0149C139.112 19.7091 141.794 17.0294 145.103 17.0294C148.411 17.0294 151.093 19.7091 151.093 23.0149C151.095 26.3207 148.413 29.0004 145.103 29.0004Z" fill="#319291" fill-opacity="0.1"/>
<path d="M191.31 46.9883C192.792 46.9883 193.992 48.1883 193.992 49.6685C193.992 51.1487 192.792 52.3487 191.31 52.3487C189.829 52.3487 188.628 51.1487 188.628 49.6685C188.628 48.1883 189.829 46.9883 191.31 46.9883Z" fill="#319291" fill-opacity="0.1"/>
<path d="M329.93 19.4725C331.888 19.4725 333.476 21.0585 333.476 23.0148C333.476 24.9712 331.888 26.5571 329.93 26.5571C327.972 26.5571 326.385 24.9712 326.385 23.0148C326.385 21.0585 327.972 19.4725 329.93 19.4725Z" fill="#319291" fill-opacity="0.1"/>
</svg>
