<svg width="318" height="522" viewBox="0 0 318 522" fill="none" xmlns="http://www.w3.org/2000/svg">
<path d="M283.012 169.725L283.094 169.678L321.034 147.793V103.926L320.952 103.878L283.012 81.9932L282.93 82.0408L244.99 103.926V147.791L245.072 147.839L283.012 169.725ZM320.706 147.602L283.012 169.344L245.319 147.602V104.116L283.012 82.3743L320.706 104.116V147.602Z" fill="#319291" fill-opacity="0.1"/>
<path d="M245.155 366.267L245.237 366.219L283.177 344.334V300.469L283.096 300.421L245.155 278.536L245.074 278.584L207.135 300.469V344.334L207.217 344.382L245.155 366.267ZM282.849 344.144L245.155 365.886L207.464 344.144V300.658L245.155 278.914L282.849 300.656V344.144Z" fill="#319291" fill-opacity="0.1"/>
<path d="M283.012 431.779L283.094 431.731L321.034 409.846V365.981L320.952 365.933L283.012 344.048L282.93 344.096L244.99 365.981V409.846L245.072 409.894L283.012 431.779ZM320.706 409.657L283.012 431.399L245.319 409.657V366.172L283.012 344.429L320.706 366.172V409.657Z" fill="#319291" fill-opacity="0.1"/>
<path d="M207.299 431.779L207.38 431.731L245.319 409.846V365.981L245.237 365.933L207.299 344.048L207.217 344.096L169.277 365.981V409.846L169.358 409.894L207.299 431.779ZM244.99 409.657L207.299 431.399L169.605 409.657V366.172L207.299 344.429L244.99 366.172V409.657Z" fill="#319291" fill-opacity="0.1"/>
<path d="M131.583 431.779L131.665 431.731L169.605 409.846V365.981L169.523 365.933L131.583 344.048L131.501 344.096L93.5611 365.981V409.846L93.6428 409.894L131.583 431.779ZM169.276 409.657L131.583 431.399L93.8897 409.657V366.172L131.583 344.429L169.276 366.172V409.657Z" fill="#319291" fill-opacity="0.1"/>
<path d="M55.8682 431.779L55.9499 431.731L93.8901 409.846V365.981L93.8084 365.933L55.8682 344.048L55.7864 344.096L17.8462 365.981V409.846L17.928 409.894L55.8682 431.779ZM93.5615 409.657L55.8682 431.399L18.1749 409.657V366.172L55.8682 344.429L93.5615 366.172V409.657Z" fill="#319291" fill-opacity="0.1"/>
<path d="M245.155 497.293L245.237 497.245L283.177 475.36V431.495L283.096 431.447L245.155 409.562L245.074 409.61L207.135 431.495V475.36L207.217 475.408L245.155 497.293ZM282.849 475.171L245.155 496.913L207.464 475.171V431.685L245.155 409.941L282.849 431.685V475.171Z" fill="#319291" fill-opacity="0.1"/>
<path d="M169.442 497.293L169.524 497.245L207.464 475.36V431.495L207.382 431.447L169.442 409.562L169.36 409.61L131.42 431.495V475.36L131.502 475.408L169.442 497.293ZM207.135 475.171L169.442 496.913L131.749 475.171V431.685L169.442 409.941L207.135 431.685V475.171Z" fill="#319291" fill-opacity="0.1"/>
<path d="M93.7266 497.293L93.8083 497.245L131.749 475.36V431.495L131.667 431.447L93.7266 409.562L93.6448 409.61L55.7046 431.495V475.36L55.7864 475.408L93.7266 497.293ZM131.42 475.171L93.7266 496.913L56.0333 475.171V431.685L93.7266 409.941L131.42 431.685V475.171Z" fill="#319291" fill-opacity="0.1"/>
<path d="M320.706 521.772V497.199L283.012 475.455L245.319 497.199V521.772H244.99V497.009L282.93 475.124L283.012 475.076L320.952 496.961L321.034 497.009V521.772H320.706Z" fill="#319291" fill-opacity="0.1"/>
<path d="M244.99 521.772V497.199L207.299 475.455L169.605 497.199V521.772H169.277V497.009L207.217 475.124L207.299 475.076L245.237 496.961L245.319 497.009V521.772H244.99Z" fill="#319291" fill-opacity="0.1"/>
<path d="M169.276 521.772V497.199L131.583 475.455L93.8897 497.199V521.772H93.5611V497.009L131.501 475.124L131.583 475.076L169.523 496.961L169.605 497.009V521.772H169.276Z" fill="#319291" fill-opacity="0.1"/>
<path d="M93.5615 521.772V497.199L55.8682 475.455L18.1749 497.199V521.772H17.8462V497.009L55.7864 475.124L55.8682 475.076L93.8084 496.961L93.8901 497.009V521.772H93.5615Z" fill="#319291" fill-opacity="0.1"/>
<path d="M294.985 269.579L345.181 240.624V182.714L294.985 153.76L244.789 182.714V240.624L294.985 269.579ZM343.468 239.636L294.985 267.602L246.504 239.636V183.703L294.985 155.737L343.468 183.703V239.636Z" fill="#319291" fill-opacity="0.1"/>
<path d="M196.308 269.579L246.504 240.624V182.714L196.308 153.76L146.112 182.714V240.624L196.308 269.579ZM244.791 239.636L196.31 267.602L147.829 239.636V183.703L196.31 155.737L244.791 183.703V239.636Z" fill="#319291" fill-opacity="0.1"/>
<path d="M344.325 239.141L368.25 252.942V254.919L344.325 241.118L295.843 269.083V325.017L344.325 352.984L368.25 339.182V341.159L344.325 354.959L294.129 326.005V268.095L344.325 239.141Z" fill="#319291" fill-opacity="0.1"/>
<path d="M245.648 354.959L295.844 326.005V268.095L245.648 239.141L195.452 268.095V326.005L245.648 354.959ZM294.129 325.017L245.648 352.982L197.165 325.017V269.083L245.648 241.118L294.129 269.083V325.017Z" fill="#319291" fill-opacity="0.1"/>
<path d="M146.969 354.959L197.165 326.005V268.095L146.969 239.141L96.7728 268.095V326.005L146.969 354.959ZM195.451 325.017L146.97 352.982L98.4893 325.017V269.083L146.97 241.118L195.451 269.083V325.017Z" fill="#319291" fill-opacity="0.1"/>
<path d="M294.985 440.342L345.181 411.388V353.477L294.985 324.523L244.789 353.477V411.388L294.985 440.342ZM343.468 410.399L294.985 438.365L246.504 410.399V354.466L294.985 326.5L343.468 354.466V410.399Z" fill="#319291" fill-opacity="0.1"/>
<path d="M196.309 440.342L246.504 411.388V353.477L196.309 324.523L146.113 353.477V411.388L196.309 440.342ZM244.791 410.399L196.31 438.365L147.829 410.399V354.466L196.31 326.5L244.791 354.466V410.399Z" fill="#319291" fill-opacity="0.1"/>
<path d="M344.325 409.906L368.25 423.706V425.683L344.325 411.881L295.843 439.849V495.782L340.898 521.772H337.472L294.129 496.77V438.86L344.325 409.906Z" fill="#319291" fill-opacity="0.1"/>
<path d="M249.074 521.772L294.129 495.782V439.849L245.648 411.881L197.165 439.849V495.782L242.222 521.772H238.795L195.452 496.77V438.86L245.648 409.906L295.844 438.86V496.77L252.5 521.772H249.074Z" fill="#319291" fill-opacity="0.1"/>
<path d="M150.395 521.772L195.451 495.782V439.849L146.969 411.881L98.4876 439.849V495.782L143.544 521.772H140.116L96.7746 496.77V438.86L146.969 409.906L197.165 438.86V496.77L153.821 521.772H150.395Z" fill="#319291" fill-opacity="0.1"/>
<path d="M337.472 521.772L294.985 497.264L252.5 521.772H249.072L294.985 495.287L340.9 521.772H337.472Z" fill="#319291" fill-opacity="0.1"/>
<path d="M238.795 521.772L196.309 497.264L153.823 521.772H150.395L196.309 495.287L242.222 521.772H238.795Z" fill="#319291" fill-opacity="0.1"/>
<path d="M140.117 521.772L97.6313 497.264L55.1444 521.772H51.7182L97.6313 495.287L143.544 521.772H140.117Z" fill="#319291" fill-opacity="0.1"/>
<path d="M245.156 106.743C243.652 106.743 242.433 105.524 242.433 104.022C242.433 102.519 243.652 101.301 245.156 101.301C246.659 101.301 247.878 102.519 247.878 104.022C247.878 105.524 246.659 106.743 245.156 106.743Z" fill="#319291" fill-opacity="0.1"/>
<path d="M283.014 166.056C284.936 166.056 286.496 167.614 286.496 169.535C286.496 171.456 284.936 173.014 283.014 173.014C281.091 173.014 279.531 171.456 279.531 169.535C279.531 167.614 281.089 166.056 283.014 166.056Z" fill="#319291" fill-opacity="0.1"/>
<path d="M283.014 87.271C280.202 87.271 277.922 84.9934 277.922 82.1838C277.922 79.3743 280.202 77.0967 283.014 77.0967C285.826 77.0967 288.105 79.3743 288.105 82.1838C288.105 84.9934 285.826 87.271 283.014 87.271Z" fill="#319291" fill-opacity="0.1"/>
<path d="M245.155 151.973C242.792 151.973 240.876 150.059 240.876 147.698C240.876 145.336 242.792 143.422 245.155 143.422C247.519 143.422 249.435 145.336 249.435 147.698C249.435 150.059 247.519 151.973 245.155 151.973Z" fill="#319291" fill-opacity="0.1"/>
<path d="M283.014 296.578C285.216 296.578 287.002 298.361 287.002 300.563C287.002 302.764 285.217 304.547 283.014 304.547C280.812 304.547 279.026 302.764 279.026 300.563C279.026 298.361 280.81 296.578 283.014 296.578Z" fill="#319291" fill-opacity="0.1"/>
<path d="M320.871 238.225C319.115 238.225 317.691 236.803 317.691 235.049C317.691 233.294 319.115 231.872 320.871 231.872C322.626 231.872 324.05 233.294 324.05 235.049C324.05 236.803 322.626 238.225 320.871 238.225Z" fill="#319291" fill-opacity="0.1"/>
<path d="M283.014 210.472C284.528 210.472 285.754 211.699 285.754 213.21C285.754 214.723 284.526 215.948 283.014 215.948C281.5 215.948 280.274 214.721 280.274 213.21C280.272 211.699 281.5 210.472 283.014 210.472Z" fill="#319291" fill-opacity="0.1"/>
<path d="M209.778 300.563C209.778 301.931 208.668 303.041 207.299 303.041C205.93 303.041 204.82 301.931 204.82 300.563C204.82 299.195 205.93 298.085 207.299 298.085C208.668 298.085 209.778 299.195 209.778 300.563Z" fill="#319291" fill-opacity="0.1"/>
<path d="M245.155 283.549C242.489 283.549 240.328 281.39 240.328 278.725C240.328 276.061 242.489 273.902 245.155 273.902C247.822 273.902 249.983 276.061 249.983 278.725C249.983 281.388 247.822 283.549 245.155 283.549Z" fill="#319291" fill-opacity="0.1"/>
<path d="M207.299 348.336C205.034 348.336 203.198 346.502 203.198 344.237C203.198 341.974 205.034 340.14 207.299 340.14C209.563 340.14 211.401 341.974 211.401 344.237C211.399 346.502 209.563 348.336 207.299 348.336Z" fill="#319291" fill-opacity="0.1"/>
<path d="M129.635 344.239C129.635 343.164 130.507 342.292 131.583 342.292C132.659 342.292 133.531 343.164 133.531 344.239C133.531 345.315 132.659 346.186 131.583 346.186C130.507 346.186 129.635 345.313 129.635 344.239Z" fill="#319291" fill-opacity="0.1"/>
<path d="M93.7264 369.843C91.6438 369.843 89.9562 368.157 89.9562 366.076C89.9562 363.996 91.6438 362.31 93.7264 362.31C95.809 362.31 97.4966 363.996 97.4966 366.076C97.4949 368.157 95.8073 369.843 93.7264 369.843Z" fill="#319291" fill-opacity="0.1"/>
<path d="M52.2273 344.239C52.2273 342.23 53.8569 340.601 55.868 340.601C57.8791 340.601 59.5088 342.23 59.5088 344.239C59.5088 346.248 57.8791 347.876 55.868 347.876C53.8569 347.876 52.2273 346.248 52.2273 344.239Z" fill="#319291" fill-opacity="0.1"/>
<path d="M18.0111 370.335C15.6577 370.335 13.7488 368.429 13.7488 366.076C13.7488 363.725 15.656 361.818 18.0111 361.818C20.3645 361.818 22.2734 363.723 22.2734 366.076C22.2717 368.428 20.3645 370.335 18.0111 370.335Z" fill="#319291" fill-opacity="0.1"/>
<path d="M283.014 434.044C281.658 434.044 280.559 432.946 280.559 431.591C280.559 430.235 281.658 429.137 283.014 429.137C284.37 429.137 285.47 430.235 285.47 431.591C285.47 432.946 284.37 434.044 283.014 434.044Z" fill="#319291" fill-opacity="0.1"/>
<path d="M283.014 348.084C280.888 348.084 279.165 346.363 279.165 344.239C279.165 342.116 280.888 340.394 283.014 340.394C285.139 340.394 286.862 342.116 286.862 344.239C286.862 346.363 285.139 348.084 283.014 348.084Z" fill="#319291" fill-opacity="0.1"/>
<path d="M248.328 409.753C248.328 411.503 246.907 412.922 245.155 412.922C243.403 412.922 241.983 411.503 241.983 409.753C241.983 408.002 243.403 406.583 245.155 406.583C246.907 406.583 248.328 408.002 248.328 409.753Z" fill="#319291" fill-opacity="0.1"/>
<path d="M242.98 366.077C242.98 364.875 243.954 363.902 245.157 363.902C246.359 363.902 247.333 364.875 247.333 366.077C247.333 367.278 246.359 368.251 245.157 368.251C243.954 368.251 242.98 367.278 242.98 366.077Z" fill="#319291" fill-opacity="0.1"/>
<path d="M169.44 364.297C170.424 364.297 171.221 365.095 171.221 366.077C171.221 367.06 170.424 367.857 169.44 367.857C168.456 367.857 167.659 367.06 167.659 366.077C167.659 365.093 168.457 364.297 169.44 364.297Z" fill="#319291" fill-opacity="0.1"/>
<path d="M134.582 431.59C134.582 433.244 133.24 434.585 131.583 434.585C129.926 434.585 128.586 433.244 128.586 431.59C128.586 429.936 129.928 428.594 131.583 428.594C133.238 428.594 134.582 429.936 134.582 431.59Z" fill="#319291" fill-opacity="0.1"/>
<path d="M169.44 405.437C171.826 405.437 173.759 407.368 173.759 409.751C173.759 412.135 171.826 414.066 169.44 414.066C167.055 414.066 165.122 412.135 165.122 409.751C165.122 407.369 167.056 405.437 169.44 405.437Z" fill="#319291" fill-opacity="0.1"/>
<path d="M18.0113 414.408C15.4383 414.408 13.3505 412.323 13.3505 409.751C13.3505 407.18 15.4366 405.094 18.0113 405.094C20.5861 405.094 22.6704 407.178 22.6704 409.751C22.6704 412.323 20.5844 414.408 18.0113 414.408Z" fill="#319291" fill-opacity="0.1"/>
<path d="M210.168 431.59C210.168 433.174 208.884 434.457 207.299 434.457C205.713 434.457 204.429 433.173 204.429 431.59C204.429 430.006 205.713 428.723 207.299 428.723C208.884 428.723 210.168 430.006 210.168 431.59Z" fill="#319291" fill-opacity="0.1"/>
<path d="M207.299 479.957C204.705 479.957 202.602 477.856 202.602 475.265C202.602 472.674 204.705 470.573 207.299 470.573C209.892 470.573 211.995 472.674 211.995 475.265C211.995 477.858 209.892 479.957 207.299 479.957Z" fill="#319291" fill-opacity="0.1"/>
<path d="M93.7266 414.653C91.018 414.653 88.8222 412.459 88.8222 409.753C88.8222 407.047 91.018 404.853 93.7266 404.853C96.4351 404.853 98.6309 407.047 98.6309 409.753C98.6309 412.459 96.4351 414.653 93.7266 414.653Z" fill="#319291" fill-opacity="0.1"/>
<path d="M55.8681 433.393C54.8721 433.393 54.0647 432.586 54.0647 431.59C54.0647 430.595 54.8721 429.788 55.8681 429.788C56.864 429.788 57.6714 430.595 57.6714 431.59C57.6714 432.586 56.864 433.393 55.8681 433.393Z" fill="#319291" fill-opacity="0.1"/>
<path d="M18.0113 500.719C16.0121 500.719 14.3926 499.101 14.3926 497.104C14.3926 495.107 16.0121 493.489 18.0113 493.489C20.0087 493.489 21.6299 495.107 21.6299 497.104C21.6299 499.1 20.0087 500.719 18.0113 500.719Z" fill="#319291" fill-opacity="0.1"/>
<path d="M55.868 480.793C52.8133 480.793 50.337 478.319 50.337 475.267C50.337 472.215 52.8133 469.74 55.868 469.74C58.9226 469.74 61.3989 472.215 61.3989 475.267C61.3989 478.319 58.9226 480.793 55.868 480.793Z" fill="#319291" fill-opacity="0.1"/>
<path d="M283.014 472.908C284.317 472.908 285.374 473.964 285.374 475.267C285.374 476.569 284.318 477.626 283.014 477.626C281.711 477.626 280.654 476.571 280.654 475.267C280.654 473.964 281.709 472.908 283.014 472.908Z" fill="#319291" fill-opacity="0.1"/>
<path d="M245.155 491.084C248.483 491.084 251.18 493.779 251.18 497.104C251.18 500.428 248.483 503.123 245.155 503.123C241.828 503.123 239.131 500.428 239.131 497.104C239.132 493.779 241.83 491.084 245.155 491.084Z" fill="#319291" fill-opacity="0.1"/>
<path d="M169.44 493.47C171.45 493.47 173.078 495.098 173.078 497.104C173.078 499.112 171.45 500.738 169.44 500.738C167.431 500.738 165.803 499.112 165.803 497.104C165.803 495.096 167.433 493.47 169.44 493.47Z" fill="#319291" fill-opacity="0.1"/>
<path d="M131.583 479.402C129.296 479.402 127.442 477.549 127.442 475.265C127.442 472.98 129.296 471.127 131.583 471.127C133.87 471.127 135.725 472.98 135.725 475.265C135.725 477.551 133.87 479.402 131.583 479.402Z" fill="#319291" fill-opacity="0.1"/>
<path d="M88.989 497.104C88.989 494.491 91.1091 492.372 93.7248 492.372C96.3404 492.372 98.4604 494.491 98.4604 497.104C98.4604 499.717 96.3404 501.835 93.7248 501.835C91.1091 501.835 88.989 499.717 88.989 497.104Z" fill="#319291" fill-opacity="0.1"/>
<path d="M361.665 152.353L361.765 152.295L368.25 156.036V156.499L361.765 152.759L315.76 179.296V232.373L361.765 258.911L368.25 255.171V255.634L361.866 259.318L361.765 259.374L315.461 232.664L315.36 232.606V179.065L361.665 152.353Z" fill="#319291" fill-opacity="0.1"/>
<path d="M315.561 339.337L315.662 339.279L361.966 312.567V259.026L361.866 258.968L315.561 232.257L315.461 232.314L269.154 259.026V312.567L269.255 312.625L315.561 339.337ZM361.564 312.334L315.559 338.873L269.553 312.334V259.258L315.559 232.719L361.564 259.258V312.334Z" fill="#319291" fill-opacity="0.1"/>
<path d="M223.147 339.337L223.248 339.279L269.554 312.567V259.026L269.454 258.968L223.147 232.257L223.047 232.314L176.74 259.026V312.567L176.841 312.625L223.147 339.337ZM269.152 312.334L223.146 338.873L177.139 312.334V259.258L223.146 232.719L269.152 259.258V312.334Z" fill="#319291" fill-opacity="0.1"/>
<path d="M130.734 339.337L130.834 339.279L177.141 312.567V259.026L177.04 258.968L130.734 232.257L130.633 232.314L84.3267 259.026V312.567L84.4272 312.625L130.734 339.337ZM176.74 312.334L130.734 338.873L84.7269 312.334V259.258L130.734 232.719L176.74 259.258V312.334Z" fill="#319291" fill-opacity="0.1"/>
<path d="M361.665 312.277L361.765 312.219L368.25 315.96V316.423L361.765 312.683L315.76 339.222V392.298L361.765 418.835L368.25 415.095V415.558L361.866 419.241L361.765 419.299L315.461 392.587L315.36 392.529V338.988L361.665 312.277Z" fill="#319291" fill-opacity="0.1"/>
<path d="M269.353 419.299L269.454 419.241L315.76 392.529V338.988L315.66 338.931L269.353 312.219L269.253 312.277L222.946 338.988V392.529L223.047 392.587L269.353 419.299ZM315.36 392.298L269.353 418.836L223.347 392.298V339.222L269.353 312.683L315.36 339.222V392.298Z" fill="#319291" fill-opacity="0.1"/>
<path d="M176.94 419.299L177.04 419.241L223.347 392.529V338.988L223.246 338.931L176.94 312.219L176.839 312.277L130.533 338.988V392.529L130.633 392.587L176.94 419.299ZM222.947 392.298L176.94 418.836L130.933 392.298V339.222L176.94 312.683L222.947 339.222V392.298Z" fill="#319291" fill-opacity="0.1"/>
<path d="M315.561 499.261L315.662 499.204L361.966 472.492V418.952L361.866 418.894L315.561 392.183L315.461 392.24L269.154 418.952V472.492L269.255 472.55L315.561 499.261ZM361.564 472.26L315.559 498.799L269.553 472.26V419.184L315.559 392.645L361.564 419.184V472.26Z" fill="#319291" fill-opacity="0.1"/>
<path d="M223.147 499.261L223.248 499.204L269.554 472.492V418.952L269.454 418.894L223.147 392.183L223.047 392.24L176.74 418.952V472.492L176.841 472.55L223.147 499.261ZM269.152 472.26L223.146 498.799L177.139 472.26V419.184L223.146 392.645L269.152 419.184V472.26Z" fill="#319291" fill-opacity="0.1"/>
<path d="M130.734 499.261L130.834 499.204L177.141 472.492V418.952L177.04 418.894L130.734 392.183L130.633 392.24L84.3267 418.952V472.492L84.4272 472.55L130.734 499.261ZM176.74 472.26L130.734 498.799L84.7269 472.26V419.184L130.734 392.645L176.74 419.184V472.26Z" fill="#319291" fill-opacity="0.1"/>
<path d="M361.665 472.201L361.765 472.143L368.25 475.884V476.347L361.765 472.607L315.76 499.146V514.541H315.36V498.914L361.665 472.201Z" fill="#319291" fill-opacity="0.1"/>
<path d="M315.36 514.541V499.146L269.353 472.607L223.348 499.146V514.541H222.946V498.914L269.253 472.201L269.353 472.143L315.661 498.855L315.76 498.914V514.541H315.36Z" fill="#319291" fill-opacity="0.1"/>
<path d="M222.946 514.541V499.146L176.94 472.607L130.934 499.146V514.541H130.533V498.914L176.839 472.201L176.94 472.143L223.248 498.855L223.348 498.914V514.541H222.946Z" fill="#319291" fill-opacity="0.1"/>
<path d="M130.533 514.541V499.146L84.5259 472.607L38.5209 499.146V514.541H38.119V498.914L84.4272 472.201L84.5259 472.143L130.834 498.855L130.935 498.914V514.541H130.533Z" fill="#319291" fill-opacity="0.1"/>
<path d="M302.146 141.363L363.412 106.022V35.3413L302.146 0L240.88 35.3396V106.022L302.146 141.363ZM361.321 104.816L302.148 138.949L242.974 104.816V36.5476L302.146 2.41257L361.319 36.5459V104.816H361.321Z" fill="#319291" fill-opacity="0.1"/>
<path d="M362.367 104.214L368.25 107.608V110.02L362.367 106.626L303.191 140.76V209.03L362.367 243.163L368.25 239.769V242.181L362.367 245.575L301.1 210.236V139.553L362.367 104.214Z" fill="#319291" fill-opacity="0.1"/>
<path d="M241.927 245.575L303.193 210.236V139.553L241.927 104.214L180.661 139.553V210.234L241.927 245.575ZM301.101 209.03L241.927 243.163L182.754 209.03V140.76L241.927 106.626L301.101 140.76V209.03Z" fill="#319291" fill-opacity="0.1"/>
<path d="M302.146 349.787L363.412 314.447V243.767L302.146 208.427L240.88 243.767V314.447L302.146 349.787ZM361.321 313.241L302.148 347.374L242.974 313.241V244.971L302.148 210.838L361.321 244.971V313.241Z" fill="#319291" fill-opacity="0.1"/>
<path d="M362.367 312.637L368.25 316.032V318.444L362.367 315.05L303.191 349.185V417.453L362.367 451.588L368.25 448.194V450.607L362.367 453.999L301.1 418.66V347.979L362.367 312.637Z" fill="#319291" fill-opacity="0.1"/>
<path d="M241.927 453.999L303.193 418.66V347.979L241.927 312.639L180.661 347.979V418.66L241.927 453.999ZM301.101 417.453L241.927 451.587L182.754 417.453V349.185L241.927 315.052L301.101 349.185V417.453Z" fill="#319291" fill-opacity="0.1"/>
<path d="M361.321 514.542V453.397L302.146 419.264L242.972 453.397V514.542H240.88V452.191L302.146 416.851L363.412 452.191V514.542H361.321Z" fill="#319291" fill-opacity="0.1"/>
<path d="M240.88 514.542V453.397L181.706 419.264L122.533 453.397V514.542H120.44V452.191L181.706 416.851L242.973 452.191V514.542H240.88Z" fill="#319291" fill-opacity="0.1"/>
<path d="M120.44 514.541V453.397L61.2664 419.263L2.09296 453.397V521.772H0.0001297V452.19L61.2664 416.851L122.533 452.19V514.541H120.44Z" fill="#319291" fill-opacity="0.1"/>
<path d="M318.585 179.18C318.585 180.851 317.23 182.203 315.559 182.203C313.889 182.203 312.533 180.849 312.533 179.18C312.533 177.509 313.889 176.157 315.559 176.157C317.23 176.157 318.585 177.511 318.585 179.18Z" fill="#319291" fill-opacity="0.1"/>
<path d="M315.559 237.49C312.796 237.49 310.553 235.251 310.553 232.49C310.553 229.729 312.794 227.488 315.559 227.488C318.325 227.488 320.566 229.727 320.566 232.49C320.566 235.251 318.325 237.49 315.559 237.49Z" fill="#319291" fill-opacity="0.1"/>
<path d="M220.769 232.488C220.769 231.176 221.833 230.113 223.146 230.113C224.459 230.113 225.523 231.176 225.523 232.488C225.523 233.8 224.459 234.864 223.146 234.864C221.833 234.866 220.769 233.802 220.769 232.488Z" fill="#319291" fill-opacity="0.1"/>
<path d="M176.939 263.739C174.398 263.739 172.338 261.681 172.338 259.142C172.338 256.603 174.398 254.545 176.939 254.545C179.481 254.545 181.541 256.603 181.541 259.142C181.541 261.681 179.481 263.739 176.939 263.739Z" fill="#319291" fill-opacity="0.1"/>
<path d="M126.289 232.488C126.289 230.036 128.278 228.047 130.734 228.047C133.188 228.047 135.178 230.035 135.178 232.488C135.178 234.94 133.189 236.929 130.734 236.929C128.28 236.929 126.289 234.941 126.289 232.488Z" fill="#319291" fill-opacity="0.1"/>
<path d="M84.5262 264.34C81.653 264.34 79.3239 262.013 79.3239 259.142C79.3239 256.271 81.653 253.944 84.5262 253.944C87.3994 253.944 89.7285 256.271 89.7285 259.142C89.7285 262.013 87.3994 264.34 84.5262 264.34Z" fill="#319291" fill-opacity="0.1"/>
<path d="M269.353 261.316C268.152 261.316 267.179 260.343 267.179 259.143C267.179 257.942 268.152 256.969 269.353 256.969C270.554 256.969 271.528 257.942 271.528 259.143C271.528 260.343 270.554 261.316 269.353 261.316Z" fill="#319291" fill-opacity="0.1"/>
<path d="M226.805 339.106C226.805 341.126 225.167 342.762 223.146 342.762C221.124 342.762 219.486 341.126 219.486 339.106C219.486 337.086 221.124 335.45 223.146 335.45C225.167 335.45 226.805 337.086 226.805 339.106Z" fill="#319291" fill-opacity="0.1"/>
<path d="M269.353 307.184C272.265 307.184 274.625 309.542 274.625 312.452C274.625 315.361 272.265 317.719 269.353 317.719C266.441 317.719 264.081 315.361 264.081 312.452C264.081 309.542 266.441 307.184 269.353 307.184Z" fill="#319291" fill-opacity="0.1"/>
<path d="M84.5262 318.134C81.3851 318.134 78.8386 315.59 78.8386 312.452C78.8386 309.313 81.3851 306.769 84.5262 306.769C87.6674 306.769 90.2139 309.313 90.2139 312.452C90.2139 315.59 87.6674 318.134 84.5262 318.134Z" fill="#319291" fill-opacity="0.1"/>
<path d="M315.559 342.606C313.625 342.606 312.056 341.039 312.056 339.106C312.056 337.173 313.625 335.606 315.559 335.606C317.494 335.606 319.062 337.173 319.062 339.106C319.062 341.039 317.494 342.606 315.559 342.606Z" fill="#319291" fill-opacity="0.1"/>
<path d="M315.559 398.141C312.393 398.141 309.827 395.577 309.827 392.414C309.827 389.251 312.393 386.687 315.559 386.687C318.725 386.687 321.291 389.251 321.291 392.414C321.291 395.577 318.725 398.141 315.559 398.141Z" fill="#319291" fill-opacity="0.1"/>
<path d="M176.94 318.434C173.633 318.434 170.953 315.756 170.953 312.452C170.953 309.148 173.633 306.47 176.94 306.47C180.247 306.47 182.927 309.148 182.927 312.452C182.927 315.756 180.247 318.434 176.94 318.434Z" fill="#319291" fill-opacity="0.1"/>
<path d="M132.936 339.106C132.936 340.321 131.95 341.307 130.734 341.307C129.518 341.307 128.532 340.321 128.532 339.106C128.532 337.891 129.518 336.906 130.734 336.906C131.95 336.904 132.936 337.89 132.936 339.106Z" fill="#319291" fill-opacity="0.1"/>
<path d="M84.5261 423.481C82.0865 423.481 80.1088 421.505 80.1088 419.068C80.1088 416.63 82.0865 414.655 84.5261 414.655C86.9657 414.655 88.9434 416.63 88.9434 419.068C88.9434 421.505 86.9657 423.481 84.5261 423.481Z" fill="#319291" fill-opacity="0.1"/>
<path d="M130.733 385.668C134.463 385.668 137.485 388.688 137.485 392.414C137.485 396.14 134.463 399.16 130.733 399.16C127.004 399.16 123.981 396.14 123.981 392.414C123.981 388.688 127.004 385.668 130.733 385.668Z" fill="#319291" fill-opacity="0.1"/>
<path d="M315.559 502.201C313.807 502.201 312.385 500.781 312.385 499.03C312.385 497.278 313.807 495.859 315.559 495.859C317.311 495.859 318.733 497.279 318.733 499.03C318.733 500.781 317.313 502.201 315.559 502.201Z" fill="#319291" fill-opacity="0.1"/>
<path d="M269.354 478.64C265.89 478.64 263.084 475.835 263.084 472.376C263.084 468.917 265.892 466.111 269.354 466.111C272.815 466.111 275.624 468.915 275.624 472.376C275.624 475.836 272.815 478.64 269.354 478.64Z" fill="#319291" fill-opacity="0.1"/>
<path d="M269.354 414.631C271.806 414.631 273.793 416.616 273.793 419.066C273.793 421.516 271.806 423.502 269.354 423.502C266.901 423.502 264.914 421.516 264.914 419.066C264.912 416.618 266.901 414.631 269.354 414.631Z" fill="#319291" fill-opacity="0.1"/>
<path d="M223.148 397.463C220.356 397.463 218.093 395.202 218.093 392.414C218.093 389.625 220.356 387.364 223.148 387.364C225.939 387.364 228.202 389.625 228.202 392.414C228.202 395.202 225.939 397.463 223.148 397.463Z" fill="#319291" fill-opacity="0.1"/>
<path d="M171.159 419.068C171.159 415.878 173.747 413.292 176.94 413.292C180.133 413.292 182.721 415.878 182.721 419.068C182.721 422.258 180.133 424.844 176.94 424.844C173.747 424.844 171.159 422.258 171.159 419.068Z" fill="#319291" fill-opacity="0.1"/>
<path d="M130.734 503.571C128.224 503.571 126.189 501.538 126.189 499.03C126.189 496.522 128.224 494.489 130.734 494.489C133.244 494.489 135.279 496.522 135.279 499.03C135.279 501.538 133.244 503.571 130.734 503.571Z" fill="#319291" fill-opacity="0.1"/>
<path d="M84.526 477.17C81.8757 477.17 79.7273 475.024 79.7273 472.376C79.7273 469.728 81.8757 467.581 84.526 467.581C87.1762 467.581 89.3247 469.728 89.3247 472.376C89.3247 475.024 87.1762 477.17 84.526 477.17Z" fill="#319291" fill-opacity="0.1"/>
<path d="M223.147 493.044C226.456 493.044 229.138 495.724 229.138 499.03C229.138 502.336 226.456 505.015 223.147 505.015C219.839 505.015 217.157 502.336 217.157 499.03C217.155 495.724 219.837 493.044 223.147 493.044Z" fill="#319291" fill-opacity="0.1"/>
<path d="M176.94 475.056C175.458 475.056 174.258 473.856 174.258 472.376C174.258 470.896 175.458 469.696 176.94 469.696C178.421 469.696 179.622 470.896 179.622 472.376C179.622 473.856 178.421 475.056 176.94 475.056Z" fill="#319291" fill-opacity="0.1"/>
<path d="M38.3198 502.572C36.3618 502.572 34.7744 500.986 34.7744 499.03C34.7744 497.073 36.3618 495.488 38.3198 495.488C40.2779 495.488 41.8652 497.073 41.8652 499.03C41.8652 500.986 40.2779 502.572 38.3198 502.572Z" fill="#319291" fill-opacity="0.1"/>
</svg>
