<svg width="51" height="51" viewBox="0 0 51 51" fill="none" xmlns="http://www.w3.org/2000/svg">
<path fill-rule="evenodd" clip-rule="evenodd" d="M28.5642 19.6771C28.9424 18.7118 28.7638 17.4212 28.2596 16.6132C26.4001 13.6542 22.4606 14.6406 21.6306 17.2218C20.1389 21.8491 26.7783 24.2205 28.5642 19.6771Z" fill="#F6941E"/>
<path fill-rule="evenodd" clip-rule="evenodd" d="M25.0873 0.947449C34.164 0.947449 42.1061 5.77414 46.4868 12.9932C46.0351 13.5388 45.5729 14.053 45.0791 14.5356C41.1081 7.61038 33.6492 2.95157 25.0873 2.95157C16.5359 2.95157 9.06659 7.61038 5.10606 14.5356C4.6123 14.053 4.13956 13.5388 3.69833 12.9932C8.07909 5.77414 16.0212 0.947449 25.0873 0.947449ZM2.8579 20.0129C2.35364 21.9016 2.0805 23.8847 2.0805 25.9203C2.0805 35.794 8.32071 44.2093 17.0612 47.462V47.5984C17.1032 47.5775 17.1452 47.546 17.1978 47.5145C19.656 48.4169 22.3139 48.8995 25.0873 48.8995C27.8713 48.8995 30.5396 48.4064 33.0084 47.504C33.0294 47.5145 33.0504 47.525 33.0714 47.5355V47.483C41.8435 44.2407 48.0942 35.815 48.0942 25.9203C48.0942 23.8952 47.8315 21.9226 47.3378 20.0443C47.6634 19.4777 47.9786 18.8901 48.2728 18.3025C48.3988 18.0612 48.5144 17.7989 48.6405 17.5261C49.5859 20.1493 50.1007 22.9718 50.1007 25.9203C50.1007 39.7183 38.9019 50.9037 25.0873 50.9037C11.2832 50.9037 0.0844727 39.7183 0.0844727 25.9203C0.0844727 22.9613 0.599237 20.1178 1.55523 17.4841C1.68129 17.7884 1.81786 18.0717 1.94393 18.3235C2.23808 18.8901 2.54274 19.4567 2.8579 20.0129Z" fill="#319291"/>
<path fill-rule="evenodd" clip-rule="evenodd" d="M18.0688 44.545C18.1844 44.3562 18.279 44.1883 18.342 44.0834C19.2875 42.5829 20.5481 41.1454 21.7773 39.8653C22.5967 39.0258 23.4581 38.1864 24.3616 37.389C24.0884 37.1581 23.8258 36.9483 23.5737 36.7489C22.6912 36.0669 21.4621 35.1225 20.2014 34.3146C18.9093 37.5254 18.2474 41.009 18.0688 44.545ZM30.4127 32.94C31.085 32.5413 31.7994 32.1845 32.4928 31.9537C39.3108 29.6453 44.2273 24.147 47.4104 17.8723C47.9882 16.7391 48.4505 15.48 48.8392 14.2733C49.3539 12.7309 49.7742 11.1465 50.1208 9.55156C50.1523 9.38367 50.1944 9.20529 50.2259 9.02692C50.1208 9.23677 50.0158 9.44663 49.9002 9.65648C47.2318 14.4622 43.9332 17.3897 39.0586 19.8975C36.9891 20.9677 34.5833 21.5448 32.3877 22.3213C29.8979 23.2132 27.7128 24.3044 25.7588 26.1092C27.7653 28.1448 29.2886 30.4532 30.4127 32.94Z" fill="#319291"/>
<path fill-rule="evenodd" clip-rule="evenodd" d="M32.0625 44.4821C31.7053 37.6722 29.6042 31.0408 24.4986 26.2036C22.5341 24.3464 20.3069 23.2341 17.7856 22.3318C15.59 21.5553 13.1948 20.9782 11.1357 19.9184C6.27173 17.4106 2.98353 14.5041 0.325668 9.69843C0.210108 9.49906 0.105054 9.28921 0 9.08984C0.0420216 9.25773 0.0735378 9.43611 0.115559 9.60399C0.451732 11.1884 0.871948 12.7623 1.37621 14.3048C1.77541 15.5114 2.22715 16.7601 2.80494 17.8933C5.97757 24.147 10.8836 29.6243 17.6806 31.9327C18.8782 32.3314 20.1178 33.0974 21.1684 33.8004C22.1979 34.4929 23.1959 35.2379 24.1729 35.9934C25.6437 37.1476 27.0724 38.4802 28.3646 39.8233C29.5937 41.0929 30.8439 42.5304 31.7894 44.0204C31.8524 44.1253 31.9469 44.2827 32.0625 44.4821Z" fill="#F6941E"/>
</svg>
