<svg width="30" height="31" viewBox="0 0 30 31" fill="none" xmlns="http://www.w3.org/2000/svg">
<ellipse cx="15" cy="15.6982" rx="15" ry="14.9194" fill="#373B42"/>
<path d="M23.6292 10.9012C23.4217 10.1352 22.8138 9.53117 22.0428 9.32493C20.6342 8.94189 15 8.94189 15 8.94189C15 8.94189 9.36572 8.94189 7.95716 9.31019C7.20098 9.51644 6.57825 10.1352 6.37067 10.9012C6 12.3008 6 15.203 6 15.203C6 15.203 6 18.1199 6.37067 19.5047C6.57825 20.2708 7.18616 20.8748 7.95716 21.081C9.38055 21.464 15 21.464 15 21.464C15 21.464 20.6342 21.464 22.0428 21.0957C22.8138 20.8895 23.4217 20.2855 23.6292 19.5194C23.9999 18.1199 23.9999 15.2177 23.9999 15.2177C23.9999 15.2177 24.0147 12.3008 23.6292 10.9012Z" fill="white"/>
<path d="M13.2061 12.5215V17.8857L17.8914 15.2036L13.2061 12.5215Z" fill="#373B42"/>
</svg>
