<svg width="41" height="39" viewBox="0 0 41 39" fill="none" xmlns="http://www.w3.org/2000/svg">
<path d="M24.1459 33.2164C24.7274 32.8825 25.1502 32.3297 25.3211 31.6796C25.492 31.0295 25.3972 30.3354 25.0574 29.75L23.7761 27.5428C23.4363 26.9574 22.8794 26.5286 22.2279 26.3508C21.5764 26.173 20.8837 26.2607 20.3021 26.5947C15.9167 29.113 13.3542 24.6985 12.0729 22.4912C10.7917 20.284 8.22919 15.8694 12.6146 13.3511C13.1962 13.0172 13.6189 12.4643 13.7899 11.8143C13.9608 11.1642 13.8659 10.4701 13.5261 9.8847L12.2449 7.67744C11.905 7.09204 11.3481 6.66328 10.6966 6.48548C10.0451 6.30767 9.35243 6.3954 8.77089 6.72935C3.28908 9.87725 1.28125 13.9732 7.6875 25.0095C14.0937 36.0458 18.6641 36.3643 24.1459 33.2164Z" stroke="#0A1631" stroke-width="2" stroke-linecap="round" stroke-linejoin="round"/>
<path d="M35.8156 24.1016C36.9804 19.6624 36.3314 14.9237 34.0113 10.9267C31.6911 6.92974 27.8896 4.00139 23.442 2.78504M29.1022 22.2694C29.4492 20.951 29.5325 19.5744 29.3472 18.2182C29.162 16.8621 28.712 15.5529 28.0227 14.3656C27.3335 13.1783 26.4187 12.136 25.3305 11.2984C24.2423 10.4608 23.002 9.84422 21.6806 9.4839M22.4248 20.4239C22.6577 19.5356 22.5278 18.5874 22.0635 17.7877C21.5993 16.9879 20.8387 16.4019 19.9488 16.1583" stroke="#319291" stroke-width="2" stroke-linecap="round" stroke-linejoin="round"/>
</svg>
