<svg width="19" height="19" viewBox="0 0 19 19" fill="none" xmlns="http://www.w3.org/2000/svg">
<path d="M18.3361 7.02169C18.2785 6.85188 18.1724 6.70267 18.0309 6.59248C17.8894 6.48229 17.7187 6.41594 17.54 6.40164L12.3108 5.98613L10.048 0.977114C9.97594 0.815784 9.85873 0.678758 9.71051 0.582573C9.56229 0.486388 9.3894 0.435156 9.2127 0.435059C9.03601 0.434962 8.86306 0.486004 8.71474 0.582026C8.56641 0.678048 8.44905 0.814946 8.3768 0.976197L6.11399 5.98613L0.884836 6.40164C0.709145 6.41556 0.541183 6.47979 0.401045 6.58667C0.260907 6.69355 0.154528 6.83853 0.0946323 7.00429C0.0347371 7.17004 0.0238628 7.34954 0.0633104 7.52131C0.102758 7.69308 0.190857 7.84985 0.317068 7.97286L4.18138 11.7399L2.8147 17.6579C2.7732 17.8371 2.7865 18.0245 2.85287 18.196C2.91924 18.3675 3.03562 18.5151 3.18691 18.6196C3.3382 18.7241 3.51741 18.7807 3.70128 18.7821C3.88515 18.7835 4.0652 18.7297 4.21806 18.6275L9.21241 15.2979L14.2067 18.6275C14.363 18.7312 14.5472 18.7846 14.7347 18.7805C14.9222 18.7764 15.104 18.7149 15.2555 18.6045C15.407 18.494 15.5211 18.3397 15.5824 18.1625C15.6436 17.9852 15.6492 17.7935 15.5982 17.613L13.9206 11.7427L18.0811 7.99854C18.3536 7.75272 18.4535 7.36932 18.3361 7.02169Z" fill="#F3CD03"/>
</svg>
