<svg width="20" height="20" viewBox="0 0 20 20" fill="none" xmlns="http://www.w3.org/2000/svg">
<path d="M12.1492 4.66668C12.9909 4.83028 13.7644 5.24038 14.3708 5.84449C14.9772 6.4486 15.3888 7.21924 15.5531 8.05777M12.1492 1.23267C13.8979 1.4262 15.5286 2.20636 16.7735 3.44504C18.0184 4.68371 18.8035 6.30729 19 8.04918M18.1383 14.9V17.4756C18.1392 17.7146 18.0901 17.9513 17.9939 18.1704C17.8978 18.3895 17.7568 18.5861 17.5799 18.7477C17.4031 18.9094 17.1943 19.0324 16.967 19.109C16.7396 19.1856 16.4987 19.2141 16.2597 19.1926C13.608 18.9055 11.0608 18.0028 8.82292 16.557C6.74082 15.2389 4.97557 13.4802 3.65252 11.4059C2.19617 9.16627 1.28985 6.61634 1.00699 3.96271C0.98546 3.7253 1.01378 3.48603 1.09015 3.26013C1.16652 3.03423 1.28927 2.82664 1.45059 2.65059C1.6119 2.47454 1.80824 2.33388 2.02711 2.23756C2.24598 2.14125 2.48258 2.09139 2.72185 2.09117H5.30705C5.72525 2.08707 6.13069 2.23461 6.44778 2.50628C6.76487 2.77796 6.97198 3.15524 7.03051 3.5678C7.13963 4.39202 7.34199 5.20129 7.63373 5.98019C7.74967 6.28747 7.77476 6.62142 7.70603 6.94247C7.63731 7.26352 7.47764 7.55822 7.24595 7.79163L6.15155 8.88193C7.37827 11.0312 9.16456 12.8108 11.322 14.033L12.4164 12.9427C12.6506 12.7118 12.9465 12.5528 13.2687 12.4843C13.591 12.4158 13.9262 12.4408 14.2346 12.5563C15.0164 12.847 15.8288 13.0486 16.6561 13.1573C17.0747 13.2161 17.457 13.4262 17.7303 13.7475C18.0035 14.0688 18.1488 14.479 18.1383 14.9Z" stroke="#0A1631" stroke-width="1.5" stroke-linecap="round" stroke-linejoin="round"/>
</svg>
