<svg width="19" height="19" viewBox="0 0 19 19" fill="none" xmlns="http://www.w3.org/2000/svg">
<path d="M4.19694 11.7402L2.83026 17.6582C2.78794 17.8374 2.80065 18.0252 2.86672 18.1971C2.93279 18.3689 3.04915 18.5169 3.20061 18.6216C3.35207 18.7263 3.53159 18.7829 3.71572 18.784C3.89984 18.7851 4.08002 18.7306 4.23271 18.6277L9.22705 15.2982L14.2214 18.6277C14.3776 18.7315 14.5619 18.7849 14.7494 18.7807C14.9369 18.7766 15.1186 18.7152 15.2702 18.6047C15.4217 18.4942 15.5358 18.34 15.597 18.1628C15.6583 17.9855 15.6638 17.7937 15.6128 17.6133L13.9352 11.743L18.0958 7.99882C18.229 7.87883 18.3242 7.72242 18.3695 7.54892C18.4148 7.37543 18.4083 7.19246 18.3507 7.02264C18.2931 6.85283 18.187 6.70361 18.0455 6.59345C17.904 6.48329 17.7334 6.41702 17.5546 6.40283L12.3255 5.9864L10.0627 0.977388C9.9905 0.816097 9.87321 0.679135 9.72494 0.583032C9.57666 0.486929 9.40375 0.435791 9.22705 0.435791C9.05036 0.435791 8.87744 0.486929 8.72917 0.583032C8.5809 0.679135 8.4636 0.816097 8.39145 0.977388L6.12863 5.9864L0.899484 6.40191C0.723793 6.41583 0.555831 6.48007 0.415694 6.58695C0.275556 6.69382 0.169176 6.83881 0.109281 7.00456C0.0493855 7.17031 0.0385112 7.34981 0.0779588 7.52158C0.117406 7.69335 0.205506 7.85012 0.331716 7.97313L4.19694 11.7402ZM6.81381 7.77226C6.97753 7.75936 7.13477 7.70265 7.26903 7.60809C7.4033 7.51352 7.50966 7.38457 7.57695 7.23476L9.22705 3.58325L10.8772 7.23476C10.9444 7.38457 11.0508 7.51352 11.1851 7.60809C11.3193 7.70265 11.4766 7.75936 11.6403 7.77226L15.2835 8.06119L12.2833 10.7615C12.0228 10.9963 11.9191 11.3577 12.0145 11.6953L13.1638 15.7173L9.73703 13.4325C9.58663 13.3316 9.40958 13.2777 9.22843 13.2777C9.04728 13.2777 8.87023 13.3316 8.71982 13.4325L5.13894 15.8201L6.10204 11.6503C6.13735 11.497 6.13261 11.3371 6.08827 11.1861C6.04394 11.0351 5.9615 10.898 5.84888 10.7881L3.06232 8.07128L6.81381 7.77226Z" fill="#F3CD03"/>
</svg>
