<svg width="45" height="45" viewBox="0 0 45 45" fill="none" xmlns="http://www.w3.org/2000/svg">
<path d="M40.7812 0.731934H29.5312C27.2021 0.731934 25.3125 2.83448 25.3125 5.42599V17.9435C25.3125 20.535 27.2021 22.6375 29.5312 22.6375H36.5625V28.8963C36.5625 32.3483 34.04 35.155 30.9375 35.155H30.2344C29.0654 35.155 28.125 36.2014 28.125 37.502V42.1961C28.125 43.4967 29.0654 44.5431 30.2344 44.5431H30.9375C38.707 44.5431 45 37.5411 45 28.8963V5.42599C45 2.83448 43.1104 0.731934 40.7812 0.731934ZM15.4688 0.731934H4.21875C1.88965 0.731934 0 2.83448 0 5.42599V17.9435C0 20.535 1.88965 22.6375 4.21875 22.6375H11.25V28.8963C11.25 32.3483 8.72754 35.155 5.625 35.155H4.92188C3.75293 35.155 2.8125 36.2014 2.8125 37.502V42.1961C2.8125 43.4967 3.75293 44.5431 4.92188 44.5431H5.625C13.3945 44.5431 19.6875 37.5411 19.6875 28.8963V5.42599C19.6875 2.83448 17.7979 0.731934 15.4688 0.731934Z" fill="#F6941E"/>
</svg>
