<svg width="232" height="51" viewBox="0 0 232 51" fill="none" xmlns="http://www.w3.org/2000/svg">
<path d="M71.5367 31.1065C67.994 31.1065 66.1733 29.6744 65.9649 26.8212H60.6016C60.7661 32.6916 64.3746 35.6651 71.5367 35.6651C78.3698 35.6651 81.9454 33.0415 82.2635 27.7722C82.428 24.3724 80.9912 22.1532 77.975 21.1256C75.7046 20.3275 73.5658 19.7372 71.5367 19.2562C67.994 18.4691 66.283 17.2338 66.283 15.5393C66.4037 13.4732 67.8405 12.4019 70.7031 12.3691C73.0503 12.3691 74.6736 13.1234 75.5839 14.6648C76.1104 15.6924 76.9001 16.2499 78.0517 16.2499H81.1557C80.8376 10.6637 77.5362 7.88695 71.1748 7.88695C64.4952 7.85415 61.1171 10.6199 60.9964 16.2827C60.9964 19.8575 63.6287 22.3062 68.9153 23.6618C70.8567 24.1756 72.6884 24.6457 74.2787 25.1267C75.9459 25.5968 76.7465 26.4713 76.7465 27.7722C76.7794 29.9914 75.0684 31.1065 71.5367 31.1065ZM92.3651 31.3798C90.6979 31.3798 89.8205 30.5927 89.6998 28.931C89.6998 27.3787 90.7747 26.3948 92.8806 25.9903C94.427 25.6733 95.8639 25.236 97.0923 24.7222V26.6681C97.0923 29.6416 95.3045 31.3798 92.3651 31.3798ZM93.5935 18.3051C95.7761 18.3051 96.8949 18.9064 97.0155 20.087C97.0155 21.2349 95.8639 21.9127 93.5935 22.186C88.274 22.7107 84.6106 24.0554 84.49 29.0841C84.49 33.7192 87.9888 36.0587 93.0341 35.6651C98.7265 35.2606 102.225 32.6916 102.225 26.9086V19.77C102.105 15.8892 99.1652 13.987 93.3522 13.987C88.5043 13.987 85.7623 15.8892 85.1261 19.77H90.4127C90.6979 18.7861 91.7289 18.3051 93.5935 18.3051ZM113.709 18.6222C116.056 18.6222 117.241 19.6935 117.361 21.869V35.2606H122.692V21.9564C122.736 19.77 123.92 18.7096 126.267 18.7096C128.614 18.7096 129.81 19.77 129.931 21.9564V32.7244C129.931 34.397 130.797 35.2278 132.552 35.3481H135.294V23.0278C135.327 17.037 132.355 14.0745 126.344 14.0745C123.646 14.0745 121.573 14.6211 120.07 15.7689C118.557 14.5883 116.495 13.987 113.786 13.987C107.786 13.987 104.77 16.9605 104.77 22.9403V35.2606H110.133V21.869C110.166 19.6935 111.362 18.6222 113.709 18.6222ZM145.747 31.3798C144.079 31.3798 143.202 30.5927 143.081 28.931C143.081 27.3787 144.156 26.3948 146.262 25.9903C147.809 25.6733 149.245 25.236 150.474 24.7222V26.6681C150.474 29.6416 148.686 31.3798 145.747 31.3798ZM146.975 18.3051C149.169 18.3051 150.276 18.9064 150.397 20.087C150.397 21.2349 149.245 21.9127 146.975 22.186C141.655 22.7107 137.992 24.0554 137.872 29.0841C137.872 33.7192 141.37 36.0587 146.427 35.6651C152.108 35.2606 155.607 32.6916 155.607 26.9086V19.77C155.486 15.8892 152.547 13.987 146.745 13.987C141.886 13.987 139.144 15.8892 138.508 19.77H143.794C144.079 18.7861 145.11 18.3051 146.975 18.3051ZM158.151 35.2606H163.515V24.3724C163.515 21.3224 164.985 19.77 167.924 19.77H169.712V14.304H168.955C161.924 14.304 158.305 17.6711 158.151 24.4489V35.2606ZM177.466 40.8469C177.466 42.596 176.589 43.4706 174.845 43.4706H172.18V23.4213C172.454 17.1573 175.711 14.0745 182.04 14.0745C188.555 14.0745 191.812 17.5946 191.812 24.6457C191.812 31.7733 189.037 35.4574 183.433 35.6651C180.8 35.6651 178.815 34.5938 177.466 32.4074V40.8469ZM181.952 30.9425C184.815 30.9425 186.285 28.931 186.405 24.8862C186.405 20.6446 184.903 18.5456 181.875 18.5456C178.859 18.5456 177.422 20.6446 177.466 24.8862C177.62 28.931 179.1 30.9425 181.952 30.9425ZM201.673 31.3798C200.006 31.3798 199.128 30.5927 199.007 28.931C199.007 27.3787 200.082 26.3948 202.188 25.9903C203.735 25.6733 205.172 25.236 206.4 24.7222V26.6681C206.4 29.6416 204.612 31.3798 201.673 31.3798ZM202.901 18.3051C205.095 18.3051 206.202 18.9064 206.323 20.087C206.323 21.2349 205.172 21.9127 202.901 22.186C197.582 22.7107 193.918 24.0554 193.798 29.0841C193.798 33.7192 197.296 36.0587 202.353 35.6651C208.034 35.2606 211.533 32.6916 211.533 26.9086V19.77C211.412 15.8892 208.473 13.987 202.671 13.987C197.812 13.987 195.07 15.8892 194.434 19.77H199.72C200.006 18.7861 201.037 18.3051 202.901 18.3051ZM231.999 35.2606V22.9403C232.043 16.9605 229.104 13.987 223.093 13.987C217.094 13.987 214.078 16.9605 214.078 22.9403V35.2606H219.441V21.869C219.485 19.6935 220.669 18.6222 223.017 18.6222C225.364 18.6222 226.559 19.6935 226.669 21.869V32.6479C226.669 34.3096 227.546 35.1513 229.301 35.2606H231.999Z" fill="#319291"/>
<path d="M65.4059 42.8365L67.9615 38.1139V44.0172H67.0072V40.4533L65.022 44.1593L62.8503 40.4643V44.0172H62.5542V38.1139L65.4059 42.8365ZM73.259 38.256H73.5552V42.1259C73.5552 42.3992 73.5113 42.6725 73.4126 42.913C73.3248 43.1645 73.1822 43.3722 73.0068 43.558C72.8203 43.7439 72.6009 43.8969 72.3377 43.9953C72.0854 44.1046 71.7893 44.1593 71.4603 44.1593H71.2848C70.9448 44.1593 70.6486 44.1046 70.3964 43.9953C70.1331 43.8969 69.9138 43.7439 69.7383 43.558C69.5628 43.3722 69.4202 43.1645 69.3215 42.913C69.2228 42.6725 69.1789 42.3992 69.1789 42.1259V38.256H70.1331V42.0822C70.1331 42.4101 70.1989 42.7162 70.3196 42.9895C70.4512 43.2628 70.6706 43.4596 70.9667 43.6017C71.1861 43.7001 71.4493 43.7548 71.7674 43.7548C72.0196 43.7548 72.25 43.7001 72.4364 43.6127C72.6229 43.5143 72.7764 43.394 72.8971 43.241C73.0177 43.077 73.1164 42.9021 73.1713 42.7053C73.2261 42.5085 73.259 42.3008 73.259 42.0822V38.256ZM75.7378 43.7329H78.0959V44.0172H74.7726V38.256H75.7378V43.7329ZM82.3296 38.256V38.5512H80.5418V44.0172H79.5876V38.5512H77.7888V38.256H79.5876H80.5418H82.3296ZM83.24 38.256H84.1942V44.0172H83.24V38.256ZM88.4827 39.1852C88.4827 39.4585 88.5485 39.699 88.6911 39.8849C88.8337 40.0816 89.0091 40.2565 89.2285 40.3987C89.4369 40.5517 89.6672 40.6938 89.9085 40.8359C90.1608 40.9671 90.3911 41.1092 90.5995 41.2732C90.8079 41.4263 90.9834 41.6121 91.126 41.8198C91.2686 42.0275 91.3453 42.279 91.3453 42.5741C91.3453 43.077 91.1699 43.4706 90.8079 43.7439C90.446 44.0172 89.9524 44.1593 89.3163 44.1593C89.075 44.1593 88.8666 44.1265 88.6801 44.0718C88.4937 44.0062 88.3401 43.9406 88.2085 43.8641C88.0549 43.7766 87.9233 43.6783 87.8027 43.5689L88.0111 43.3612C88.1098 43.4487 88.2304 43.5361 88.373 43.6127C88.4937 43.6783 88.6253 43.7329 88.7898 43.7766C88.9543 43.8313 89.1298 43.8532 89.3272 43.8532C89.7221 43.8532 90.0182 43.7766 90.2266 43.6236C90.424 43.4706 90.5227 43.241 90.5227 42.9349C90.5227 42.749 90.4569 42.5741 90.3143 42.4211C90.1718 42.268 90.0072 42.1259 89.7988 41.9947C89.5905 41.8526 89.3601 41.7105 89.1188 41.5793C88.8775 41.4372 88.6472 41.2842 88.4388 41.1092C88.2304 40.9343 88.0549 40.7376 87.9233 40.5189C87.7807 40.3003 87.704 40.0379 87.704 39.7427C87.704 39.2071 87.8685 38.8135 88.1865 38.5293C88.4937 38.256 88.9543 38.1139 89.5685 38.1139C89.733 38.1139 89.8866 38.1357 90.0292 38.1795C90.1827 38.2123 90.3143 38.256 90.446 38.3107C90.5776 38.3653 90.6982 38.4309 90.7969 38.4965C90.9066 38.573 91.0053 38.6386 91.0821 38.7042L90.8737 38.9228C90.8079 38.8573 90.7311 38.8026 90.6434 38.737C90.5447 38.6714 90.446 38.6167 90.3363 38.573C90.2266 38.5293 90.106 38.4856 89.9743 38.4528C89.8427 38.42 89.7111 38.409 89.5685 38.409C89.3711 38.409 89.2066 38.4309 89.064 38.4746C88.9324 38.5074 88.8227 38.573 88.7349 38.6386C88.6472 38.7151 88.5814 38.7917 88.5375 38.89C88.5046 38.9775 88.4827 39.0759 88.4827 39.1852ZM94.0106 38.256C94.3067 38.256 94.5919 38.2997 94.8332 38.3653C95.0745 38.4418 95.2829 38.5402 95.4474 38.6823C95.6229 38.8245 95.7545 38.9994 95.8422 39.2071C95.93 39.4039 95.9848 39.6444 95.9848 39.9067C95.9848 40.4315 95.8093 40.8469 95.4474 41.1311C95.0964 41.4153 94.6138 41.5575 93.9996 41.5575H93.2867V44.0172H92.3325V38.256H94.0106ZM93.8899 41.2623C94.0983 41.2623 94.2738 41.2295 94.4164 41.153C94.559 41.0764 94.6796 40.9781 94.7674 40.8578C94.8551 40.7266 94.9209 40.5845 94.9648 40.4205C95.0087 40.2565 95.0306 40.0816 95.0306 39.9067C95.0306 39.7209 95.0087 39.5569 94.9648 39.3929C94.9209 39.2289 94.8551 39.0868 94.7674 38.9556C94.6796 38.8354 94.559 38.737 94.4164 38.6605C94.2738 38.584 94.0983 38.5512 93.8899 38.5512H93.2867V41.2623H93.8899ZM100.131 38.256V38.5512H97.7726V40.6392H99.703V40.9234H97.7726V43.7329H100.131V44.0172H97.7726H96.8184V38.256H100.131ZM103.695 38.409C103.421 38.42 103.191 38.4637 102.993 38.5621C102.785 38.6605 102.61 38.7807 102.467 38.9338C102.313 39.0868 102.193 39.2617 102.094 39.4476C101.995 39.6444 101.919 39.8411 101.853 40.0379C101.798 40.2347 101.754 40.4315 101.732 40.6173C101.71 40.8141 101.699 40.989 101.699 41.142C101.699 41.2842 101.71 41.4591 101.732 41.6449C101.754 41.8417 101.787 42.0385 101.853 42.2352C101.908 42.432 101.984 42.6288 102.083 42.8256C102.182 43.0223 102.313 43.1863 102.456 43.3394C102.61 43.4924 102.785 43.6127 102.982 43.7111C103.18 43.8094 103.41 43.8641 103.684 43.8641C103.948 43.8641 104.2 43.8094 104.441 43.722C104.682 43.6345 104.902 43.5143 105.11 43.3612L105.275 43.6017C105.044 43.7766 104.781 43.9078 104.507 44.0062C104.233 44.1046 103.937 44.1593 103.63 44.1593C103.388 44.1593 103.18 44.1374 103.004 44.0827C102.621 44.0062 102.291 43.886 102.006 43.7001C101.732 43.5143 101.491 43.2956 101.304 43.0333C101.118 42.7709 100.975 42.4757 100.877 42.1587C100.789 41.8308 100.734 41.4919 100.734 41.142C100.734 40.7704 100.789 40.4205 100.888 40.0926C100.986 39.7646 101.14 39.4694 101.337 39.2071C101.535 38.9338 101.776 38.7151 102.072 38.5402C102.368 38.3544 102.719 38.2341 103.114 38.1685C103.191 38.1467 103.279 38.1357 103.366 38.1248C103.454 38.1248 103.542 38.1139 103.63 38.1139C103.937 38.1139 104.233 38.1685 104.507 38.2669C104.781 38.3653 105.044 38.4965 105.275 38.6714L105.11 38.9119C104.902 38.7589 104.682 38.6386 104.452 38.5512C104.211 38.4637 103.959 38.42 103.695 38.409ZM106.196 38.256H107.15V44.0172H106.196V38.256ZM110.452 38.1139L112.909 44.0172H111.889L111.022 41.8745H109.179L108.302 44.0172H107.984L110.452 38.1139ZM110.901 41.5793L110.112 39.6116L109.3 41.5793H110.901ZM114.696 43.7329H117.065V44.0172H113.742V38.256H114.696V43.7329ZM117.976 38.256H118.93V44.0172H117.976V38.256ZM124.392 38.256V38.5512H122.593V44.0172H121.639V38.5512H119.851V38.256H121.639H122.593H124.392ZM129.569 38.256L127.704 41.3388V44.0172H126.75V41.3279L124.842 38.256H125.851L127.551 41.0983L129.262 38.256H129.569ZM136.062 38.256H137.016V44.0172H136.062V40.9234H133.583V44.0172H132.629V38.256H133.583V40.6392H136.062V38.256ZM141.031 38.1139C141.524 38.1139 141.963 38.2013 142.347 38.3544C142.72 38.5184 143.038 38.737 143.29 39.0103C143.542 39.2836 143.729 39.6006 143.849 39.9723C143.981 40.3331 144.047 40.7266 144.047 41.142C144.047 41.5575 143.981 41.9401 143.849 42.3118C143.729 42.6725 143.542 42.9895 143.29 43.2628C143.038 43.5361 142.72 43.7548 142.347 43.9188C141.963 44.0827 141.524 44.1593 141.031 44.1593C140.526 44.1593 140.087 44.0827 139.714 43.9188C139.342 43.7548 139.023 43.5361 138.771 43.2628C138.519 42.9895 138.332 42.6725 138.201 42.3118C138.08 41.9401 138.014 41.5575 138.014 41.142C138.014 40.7266 138.08 40.3331 138.201 39.9723C138.332 39.6006 138.519 39.2836 138.771 39.0103C139.023 38.737 139.342 38.5184 139.714 38.3544C140.087 38.2013 140.526 38.1139 141.031 38.1139ZM141.031 43.8641C141.305 43.8641 141.546 43.8204 141.755 43.7329C141.963 43.6455 142.138 43.5143 142.292 43.3612C142.446 43.2082 142.577 43.0442 142.676 42.8474C142.786 42.6507 142.862 42.4539 142.928 42.2571C142.983 42.0494 143.027 41.8526 143.049 41.6558C143.082 41.47 143.093 41.2951 143.093 41.142C143.093 40.989 143.082 40.8141 143.049 40.6173C143.027 40.4205 142.983 40.2238 142.928 40.016C142.862 39.8193 142.786 39.6225 142.676 39.4257C142.577 39.2399 142.446 39.065 142.292 38.9119C142.138 38.7589 141.963 38.6386 141.755 38.5402C141.546 38.4528 141.305 38.409 141.031 38.409C140.756 38.409 140.515 38.4528 140.307 38.5402C140.098 38.6386 139.912 38.7589 139.758 38.9119C139.605 39.065 139.484 39.2399 139.374 39.4257C139.276 39.6225 139.199 39.8193 139.133 40.016C139.078 40.2238 139.034 40.4205 139.002 40.6173C138.98 40.8141 138.969 40.989 138.969 41.142C138.969 41.2951 138.98 41.47 139.002 41.6558C139.034 41.8526 139.078 42.0494 139.133 42.2571C139.199 42.4539 139.276 42.6507 139.374 42.8474C139.484 43.0442 139.605 43.2082 139.758 43.3612C139.912 43.5143 140.098 43.6455 140.307 43.7329C140.515 43.8204 140.756 43.8641 141.031 43.8641ZM145.429 39.1852C145.429 39.4585 145.495 39.699 145.637 39.8849C145.78 40.0816 145.966 40.2565 146.175 40.3987C146.383 40.5517 146.613 40.6938 146.855 40.8359C147.107 40.9671 147.337 41.1092 147.546 41.2732C147.754 41.4263 147.941 41.6121 148.083 41.8198C148.226 42.0275 148.291 42.279 148.291 42.5741C148.291 43.077 148.116 43.4706 147.754 43.7439C147.392 44.0172 146.899 44.1593 146.262 44.1593C146.021 44.1593 145.813 44.1265 145.626 44.0718C145.44 44.0062 145.286 43.9406 145.155 43.8641C145.001 43.7766 144.869 43.6783 144.76 43.5689L144.957 43.3612C145.067 43.4487 145.188 43.5361 145.319 43.6127C145.44 43.6783 145.582 43.7329 145.736 43.7766C145.9 43.8313 146.087 43.8532 146.273 43.8532C146.668 43.8532 146.964 43.7766 147.173 43.6236C147.37 43.4706 147.48 43.241 147.48 42.9349C147.48 42.749 147.403 42.5741 147.26 42.4211C147.129 42.268 146.953 42.1259 146.745 41.9947C146.537 41.8526 146.306 41.7105 146.065 41.5793C145.824 41.4372 145.593 41.2842 145.385 41.1092C145.177 40.9343 145.012 40.7376 144.869 40.5189C144.727 40.3003 144.661 40.0379 144.661 39.7427C144.661 39.2071 144.815 38.8135 145.133 38.5293C145.451 38.256 145.911 38.1139 146.515 38.1139C146.679 38.1139 146.833 38.1357 146.975 38.1795C147.129 38.2123 147.26 38.256 147.392 38.3107C147.524 38.3653 147.644 38.4309 147.754 38.4965C147.853 38.573 147.951 38.6386 148.028 38.7042L147.831 38.9228C147.765 38.8573 147.677 38.8026 147.59 38.737C147.502 38.6714 147.392 38.6167 147.282 38.573C147.173 38.5293 147.052 38.4856 146.92 38.4528C146.789 38.42 146.657 38.409 146.515 38.409C146.317 38.409 146.153 38.4309 146.021 38.4746C145.879 38.5074 145.769 38.573 145.681 38.6386C145.593 38.7151 145.528 38.7917 145.484 38.89C145.451 38.9775 145.429 39.0759 145.429 39.1852ZM150.957 38.256C151.264 38.256 151.538 38.2997 151.779 38.3653C152.021 38.4418 152.229 38.5402 152.394 38.6823C152.569 38.8245 152.701 38.9994 152.788 39.2071C152.887 39.4039 152.931 39.6444 152.931 39.9067C152.931 40.4315 152.755 40.8469 152.405 41.1311C152.043 41.4153 151.56 41.5575 150.957 41.5575H150.244V44.0172H149.29V38.256H150.957ZM150.836 41.2623C151.044 41.2623 151.22 41.2295 151.363 41.153C151.516 41.0764 151.626 40.9781 151.714 40.8578C151.812 40.7266 151.867 40.5845 151.911 40.4205C151.955 40.2565 151.977 40.0816 151.977 39.9067C151.977 39.7209 151.955 39.5569 151.911 39.3929C151.867 39.2289 151.812 39.0868 151.714 38.9556C151.626 38.8354 151.516 38.737 151.363 38.6605C151.22 38.584 151.044 38.5512 150.836 38.5512H150.244V41.2623H150.836ZM153.918 38.256H154.872V44.0172H153.918V38.256ZM160.334 38.256V38.5512H158.536V44.0172H157.581V38.5512H155.783V38.256H157.581H158.536H160.334ZM162.473 38.1139L164.93 44.0172H163.921L163.044 41.8745H161.212L160.334 44.0172H160.016L162.473 38.1139ZM162.934 41.5793L162.144 39.6116L161.333 41.5793H162.934ZM166.729 43.7329H169.087V44.0172H165.775V38.256H166.729V43.7329Z" fill="#F6941E"/>
<path fill-rule="evenodd" clip-rule="evenodd" d="M28.5642 19.6771C28.9424 18.7118 28.7638 17.4212 28.2596 16.6132C26.4001 13.6542 22.4606 14.6406 21.6306 17.2218C20.1389 21.8491 26.7783 24.2205 28.5642 19.6771Z" fill="#F6941E"/>
<path fill-rule="evenodd" clip-rule="evenodd" d="M25.0873 0.947449C34.164 0.947449 42.1061 5.77414 46.4868 12.9932C46.0351 13.5388 45.5729 14.053 45.0791 14.5356C41.1081 7.61038 33.6492 2.95157 25.0873 2.95157C16.5359 2.95157 9.06659 7.61038 5.10606 14.5356C4.6123 14.053 4.13956 13.5388 3.69833 12.9932C8.07909 5.77414 16.0212 0.947449 25.0873 0.947449ZM2.8579 20.0129C2.35364 21.9016 2.0805 23.8847 2.0805 25.9203C2.0805 35.794 8.32071 44.2093 17.0612 47.462V47.5984C17.1032 47.5774 17.1452 47.546 17.1978 47.5145C19.656 48.4169 22.3139 48.8995 25.0873 48.8995C27.8713 48.8995 30.5396 48.4064 33.0084 47.504C33.0294 47.5145 33.0504 47.525 33.0714 47.5355V47.483C41.8435 44.2407 48.0942 35.815 48.0942 25.9203C48.0942 23.8952 47.8315 21.9226 47.3378 20.0443C47.6634 19.4777 47.9786 18.8901 48.2728 18.3025C48.3988 18.0612 48.5144 17.7989 48.6405 17.5261C49.5859 20.1493 50.1007 22.9718 50.1007 25.9203C50.1007 39.7183 38.9019 50.9037 25.0873 50.9037C11.2832 50.9037 0.0844727 39.7183 0.0844727 25.9203C0.0844727 22.9613 0.599237 20.1178 1.55523 17.4841C1.68129 17.7884 1.81786 18.0717 1.94393 18.3235C2.23808 18.8901 2.54274 19.4567 2.8579 20.0129Z" fill="#319291"/>
<path fill-rule="evenodd" clip-rule="evenodd" d="M18.0688 44.545C18.1844 44.3562 18.279 44.1883 18.342 44.0834C19.2875 42.5829 20.5481 41.1454 21.7773 39.8653C22.5967 39.0258 23.4581 38.1864 24.3616 37.389C24.0884 37.1581 23.8258 36.9483 23.5737 36.7489C22.6912 36.0669 21.4621 35.1225 20.2014 34.3146C18.9093 37.5254 18.2474 41.009 18.0688 44.545ZM30.4127 32.94C31.085 32.5413 31.7994 32.1845 32.4928 31.9537C39.3108 29.6453 44.2273 24.147 47.4104 17.8723C47.9882 16.7391 48.4505 15.48 48.8392 14.2733C49.3539 12.7309 49.7742 11.1465 50.1208 9.55156C50.1524 9.38367 50.1944 9.20529 50.2259 9.02692C50.1208 9.23677 50.0158 9.44663 49.9002 9.65648C47.2318 14.4622 43.9332 17.3897 39.0586 19.8975C36.9891 20.9677 34.5833 21.5448 32.3877 22.3213C29.8979 23.2132 27.7128 24.3044 25.7588 26.1092C27.7653 28.1448 29.2886 30.4532 30.4127 32.94Z" fill="#319291"/>
<path fill-rule="evenodd" clip-rule="evenodd" d="M32.0625 44.4821C31.7053 37.6722 29.6042 31.0408 24.4986 26.2036C22.5341 24.3464 20.3069 23.2341 17.7856 22.3318C15.59 21.5553 13.1948 20.9782 11.1357 19.9184C6.27173 17.4106 2.98353 14.5041 0.325668 9.69843C0.210108 9.49906 0.105054 9.28921 0 9.08984C0.0420216 9.25773 0.0735378 9.43611 0.115559 9.60399C0.451732 11.1884 0.871948 12.7623 1.37621 14.3048C1.77541 15.5114 2.22715 16.7601 2.80494 17.8933C5.97757 24.147 10.8836 29.6243 17.6806 31.9327C18.8782 32.3314 20.1178 33.0974 21.1684 33.8004C22.1979 34.4929 23.1959 35.2379 24.1729 35.9934C25.6437 37.1476 27.0724 38.4802 28.3646 39.8233C29.5937 41.0929 30.8439 42.5304 31.7894 44.0204C31.8524 44.1253 31.9469 44.2827 32.0625 44.4821Z" fill="#F6941E"/>
</svg>
