<svg width="235" height="50" viewBox="0 0 235 50" fill="none" xmlns="http://www.w3.org/2000/svg">
<path d="M72.4604 30.186C68.8719 30.186 67.0277 28.7526 66.8166 25.8969H61.3838C61.5504 31.7725 65.2056 34.7486 72.4604 34.7486C79.382 34.7486 83.0038 32.1226 83.326 26.8488C83.4927 23.446 82.0373 21.2248 78.982 20.1963C76.6822 19.3976 74.5158 18.8067 72.4604 18.3253C68.8719 17.5375 67.1388 16.3011 67.1388 14.6052C67.261 12.5372 68.7164 11.465 71.6161 11.4321C73.9936 11.4321 75.6379 12.1871 76.56 13.7299C77.0933 14.7584 77.8932 15.3164 79.0598 15.3164H82.2039C81.8817 9.72525 78.5376 6.94609 72.0938 6.94609C65.3278 6.91326 61.906 9.68148 61.7837 15.3492C61.7837 18.9271 64.4501 21.378 69.8052 22.7348C71.7716 23.249 73.627 23.7195 75.2379 24.2009C76.9267 24.6714 77.7377 25.5468 77.7377 26.8488C77.771 29.0699 76.0379 30.186 72.4604 30.186ZM93.5583 30.4595C91.8696 30.4595 90.9808 29.6717 90.8586 28.0086C90.8586 26.4549 91.9474 25.4702 94.0805 25.0653C95.647 24.748 97.1024 24.3104 98.3467 23.7961V25.7437C98.3467 28.7198 96.5358 30.4595 93.5583 30.4595ZM94.8026 17.3734C97.0135 17.3734 98.1467 17.9752 98.2689 19.1569C98.2689 20.3057 97.1024 20.9841 94.8026 21.2577C89.4143 21.7829 85.7035 23.1287 85.5813 28.1618C85.5813 32.801 89.1254 35.1425 94.236 34.7486C100.002 34.3438 103.546 31.7725 103.546 25.9844V18.8396C103.424 14.9553 100.446 13.0515 94.5582 13.0515C89.6476 13.0515 86.8701 14.9553 86.2257 18.8396H91.5807C91.8696 17.8548 92.9139 17.3734 94.8026 17.3734ZM115.178 17.6907C117.556 17.6907 118.756 18.763 118.878 20.9404V34.3438H124.277V21.0279C124.322 18.8396 125.522 17.7782 127.899 17.7782C130.277 17.7782 131.488 18.8396 131.61 21.0279V31.8053C131.61 33.4794 132.488 34.311 134.265 34.4313H137.043V22.1002C137.076 16.1042 134.065 13.139 127.977 13.139C125.244 13.139 123.144 13.6861 121.622 14.835C120.089 13.6533 118 13.0515 115.256 13.0515C109.179 13.0515 106.124 16.0276 106.124 22.0126V34.3438H111.556V20.9404C111.59 18.763 112.801 17.6907 115.178 17.6907ZM147.631 30.4595C145.942 30.4595 145.053 29.6717 144.931 28.0086C144.931 26.4549 146.02 25.4702 148.153 25.0653C149.719 24.748 151.175 24.3104 152.419 23.7961V25.7437C152.419 28.7198 150.608 30.4595 147.631 30.4595ZM148.875 17.3734C151.097 17.3734 152.219 17.9752 152.341 19.1569C152.341 20.3057 151.175 20.9841 148.875 21.2577C143.487 21.7829 139.776 23.1287 139.654 28.1618C139.654 32.801 143.198 35.1425 148.319 34.7486C154.074 34.3438 157.618 31.7725 157.618 25.9844V18.8396C157.496 14.9553 154.519 13.0515 148.642 13.0515C143.72 13.0515 140.942 14.9553 140.298 18.8396H145.653C145.942 17.8548 146.986 17.3734 148.875 17.3734ZM160.196 34.3438H165.629V23.446C165.629 20.3933 167.118 18.8396 170.095 18.8396H171.906V13.3688H171.139C164.018 13.3688 160.352 16.7388 160.196 23.5226V34.3438ZM179.761 39.9349C179.761 41.6856 178.872 42.5609 177.105 42.5609H174.406V22.4941C174.683 16.2245 177.983 13.139 184.394 13.139C190.993 13.139 194.293 16.6622 194.293 23.7195C194.293 30.8534 191.482 34.5407 185.805 34.7486C183.138 34.7486 181.127 33.6763 179.761 31.488V39.9349ZM184.305 30.0219C187.204 30.0219 188.693 28.0086 188.815 23.9602C188.815 19.7149 187.293 17.6141 184.227 17.6141C181.172 17.6141 179.716 19.7149 179.761 23.9602C179.916 28.0086 181.416 30.0219 184.305 30.0219ZM204.28 30.4595C202.592 30.4595 201.703 29.6717 201.581 28.0086C201.581 26.4549 202.669 25.4702 204.803 25.0653C206.369 24.748 207.825 24.3104 209.069 23.7961V25.7437C209.069 28.7198 207.258 30.4595 204.28 30.4595ZM205.525 17.3734C207.747 17.3734 208.869 17.9752 208.991 19.1569C208.991 20.3057 207.825 20.9841 205.525 21.2577C200.136 21.7829 196.426 23.1287 196.303 28.1618C196.303 32.801 199.848 35.1425 204.969 34.7486C210.724 34.3438 214.268 31.7725 214.268 25.9844V18.8396C214.146 14.9553 211.169 13.0515 205.291 13.0515C200.37 13.0515 197.592 14.9553 196.948 18.8396H202.303C202.592 17.8548 203.636 17.3734 205.525 17.3734ZM235 34.3438V22.0126C235.044 16.0276 232.066 13.0515 225.978 13.0515C219.901 13.0515 216.846 16.0276 216.846 22.0126V34.3438H222.279V20.9404C222.323 18.763 223.523 17.6907 225.9 17.6907C228.278 17.6907 229.489 18.763 229.6 20.9404V31.7287C229.6 33.3919 230.489 34.2344 232.266 34.3438H235Z" fill="white"/>
<path d="M66.2499 41.9276L68.8386 37.1992V43.1097H67.872V39.5415L65.8611 43.252L63.6613 39.5525V43.1097H63.3613V37.1992L66.2499 41.9276ZM74.2047 37.3415H74.5046V41.2162C74.5046 41.4898 74.4602 41.7634 74.3602 42.0042C74.2713 42.256 74.1269 42.4639 73.9491 42.65C73.7603 42.8361 73.5381 42.9893 73.2714 43.0878C73.0159 43.1973 72.7159 43.252 72.3826 43.252H72.2049C71.8605 43.252 71.5605 43.1973 71.305 43.0878C71.0383 42.9893 70.8161 42.8361 70.6384 42.65C70.4606 42.4639 70.3162 42.256 70.2162 42.0042C70.1162 41.7634 70.0718 41.4898 70.0718 41.2162V37.3415H71.0383V41.1724C71.0383 41.5007 71.105 41.8072 71.2272 42.0808C71.3605 42.3545 71.5827 42.5515 71.8827 42.6938C72.1049 42.7923 72.3715 42.847 72.6937 42.847C72.9492 42.847 73.1826 42.7923 73.3714 42.7047C73.5603 42.6062 73.7158 42.4858 73.838 42.3326C73.9603 42.1684 74.0602 41.9933 74.1158 41.7963C74.1713 41.5992 74.2047 41.3913 74.2047 41.1724V37.3415ZM76.7155 42.8251H79.1042V43.1097H75.7379V37.3415H76.7155V42.8251ZM83.3926 37.3415V37.637H81.5817V43.1097H80.6151V37.637H78.7931V37.3415H80.6151H81.5817H83.3926ZM84.3148 37.3415H85.2813V43.1097H84.3148V37.3415ZM89.6253 38.2719C89.6253 38.5455 89.692 38.7863 89.8364 38.9724C89.9809 39.1694 90.1586 39.3445 90.3808 39.4868C90.5919 39.64 90.8252 39.7823 91.0696 39.9246C91.3252 40.0559 91.5585 40.1982 91.7696 40.3624C91.9806 40.5157 92.1584 40.7017 92.3028 40.9097C92.4473 41.1176 92.525 41.3694 92.525 41.6649C92.525 42.1684 92.3473 42.5624 91.9806 42.8361C91.614 43.1097 91.1141 43.252 90.4697 43.252C90.2253 43.252 90.0142 43.2191 89.8253 43.1644C89.6364 43.0987 89.4809 43.0331 89.3476 42.9565C89.192 42.8689 89.0587 42.7704 88.9365 42.6609L89.1476 42.453C89.2476 42.5405 89.3698 42.6281 89.5142 42.7047C89.6364 42.7704 89.7698 42.8251 89.9364 42.8689C90.1031 42.9236 90.2808 42.9455 90.4808 42.9455C90.8808 42.9455 91.1807 42.8689 91.3918 42.7157C91.5918 42.5624 91.6918 42.3326 91.6918 42.0261C91.6918 41.84 91.6251 41.6649 91.4807 41.5117C91.3363 41.3584 91.1696 41.2162 90.9585 41.0848C90.7474 40.9425 90.5141 40.8002 90.2697 40.6689C90.0253 40.5266 89.792 40.3734 89.5809 40.1982C89.3698 40.0231 89.192 39.8261 89.0587 39.6072C88.9143 39.3883 88.8365 39.1256 88.8365 38.8301C88.8365 38.2938 89.0032 37.8997 89.3254 37.6151C89.6364 37.3415 90.1031 37.1992 90.7252 37.1992C90.8919 37.1992 91.0474 37.2211 91.1918 37.2649C91.3474 37.2977 91.4807 37.3415 91.614 37.3962C91.7473 37.451 91.8695 37.5166 91.9695 37.5823C92.0806 37.6589 92.1806 37.7246 92.2584 37.7903L92.0473 38.0092C91.9806 37.9435 91.9029 37.8888 91.814 37.8231C91.714 37.7574 91.614 37.7027 91.5029 37.6589C91.3918 37.6151 91.2696 37.5714 91.1363 37.5385C91.003 37.5057 90.8696 37.4947 90.7252 37.4947C90.5252 37.4947 90.3586 37.5166 90.2142 37.5604C90.0808 37.5933 89.9697 37.6589 89.8809 37.7246C89.792 37.8012 89.7253 37.8778 89.6809 37.9763C89.6476 38.0639 89.6253 38.1624 89.6253 38.2719ZM95.2248 37.3415C95.5247 37.3415 95.8136 37.3853 96.058 37.451C96.3024 37.5276 96.5135 37.6261 96.6802 37.7684C96.8579 37.9107 96.9913 38.0858 97.0801 38.2938C97.169 38.4908 97.2246 38.7316 97.2246 38.9943C97.2246 39.5196 97.0468 39.9355 96.6802 40.2201C96.3247 40.5047 95.8358 40.647 95.2137 40.647H94.4915V43.1097H93.5249V37.3415H95.2248ZM95.1026 40.3515C95.3136 40.3515 95.4914 40.3186 95.6358 40.242C95.7803 40.1654 95.9025 40.0669 95.9914 39.9465C96.0802 39.8152 96.1469 39.6729 96.1913 39.5087C96.2358 39.3445 96.258 39.1694 96.258 38.9943C96.258 38.8082 96.2358 38.644 96.1913 38.4798C96.1469 38.3156 96.0802 38.1734 95.9914 38.042C95.9025 37.9216 95.7803 37.8231 95.6358 37.7465C95.4914 37.6699 95.3136 37.637 95.1026 37.637H94.4915V40.3515H95.1026ZM101.424 37.3415V37.637H99.0355V39.7276H100.991V40.0122H99.0355V42.8251H101.424V43.1097H99.0355H98.0689V37.3415H101.424ZM105.035 37.4947C104.757 37.5057 104.524 37.5495 104.324 37.648C104.113 37.7465 103.935 37.8669 103.791 38.0201C103.635 38.1734 103.513 38.3485 103.413 38.5345C103.313 38.7316 103.235 38.9286 103.168 39.1256C103.113 39.3226 103.068 39.5196 103.046 39.7057C103.024 39.9027 103.013 40.0778 103.013 40.2311C103.013 40.3734 103.024 40.5485 103.046 40.7346C103.068 40.9316 103.102 41.1286 103.168 41.3256C103.224 41.5226 103.302 41.7196 103.402 41.9167C103.502 42.1137 103.635 42.2778 103.779 42.4311C103.935 42.5843 104.113 42.7047 104.313 42.8032C104.513 42.9017 104.746 42.9565 105.024 42.9565C105.29 42.9565 105.546 42.9017 105.79 42.8142C106.035 42.7266 106.257 42.6062 106.468 42.453L106.635 42.6938C106.401 42.8689 106.135 43.0002 105.857 43.0987C105.579 43.1973 105.279 43.252 104.968 43.252C104.724 43.252 104.513 43.2301 104.335 43.1754C103.946 43.0987 103.613 42.9783 103.324 42.7923C103.046 42.6062 102.802 42.3873 102.613 42.1246C102.424 41.8619 102.28 41.5664 102.18 41.249C102.091 40.9206 102.035 40.5813 102.035 40.2311C102.035 39.8589 102.091 39.5087 102.191 39.1803C102.291 38.852 102.446 38.5564 102.646 38.2938C102.846 38.0201 103.091 37.8012 103.391 37.6261C103.691 37.44 104.046 37.3196 104.446 37.2539C104.524 37.2321 104.613 37.2211 104.702 37.2102C104.79 37.2102 104.879 37.1992 104.968 37.1992C105.279 37.1992 105.579 37.2539 105.857 37.3525C106.135 37.451 106.401 37.5823 106.635 37.7574L106.468 37.9982C106.257 37.845 106.035 37.7246 105.801 37.637C105.557 37.5495 105.302 37.5057 105.035 37.4947ZM107.568 37.3415H108.535V43.1097H107.568V37.3415ZM111.879 37.1992L114.367 43.1097H113.334L112.456 40.9644H110.59L109.701 43.1097H109.379L111.879 37.1992ZM112.334 40.6689L111.534 38.6987L110.712 40.6689H112.334ZM116.178 42.8251H118.578V43.1097H115.212V37.3415H116.178V42.8251ZM119.5 37.3415H120.467V43.1097H119.5V37.3415ZM125.999 37.3415V37.637H124.177V43.1097H123.211V37.637H121.4V37.3415H123.211H124.177H125.999ZM131.243 37.3415L129.355 40.4281V43.1097H128.388V40.4171L126.455 37.3415H127.477L129.199 40.1873L130.932 37.3415H131.243ZM137.82 37.3415H138.787V43.1097H137.82V40.0122H135.31V43.1097H134.343V37.3415H135.31V39.7276H137.82V37.3415ZM142.853 37.1992C143.353 37.1992 143.798 37.2868 144.186 37.44C144.564 37.6042 144.886 37.8231 145.142 38.0967C145.397 38.3704 145.586 38.6878 145.709 39.0599C145.842 39.4211 145.909 39.8152 145.909 40.2311C145.909 40.647 145.842 41.0301 145.709 41.4022C145.586 41.7634 145.397 42.0808 145.142 42.3545C144.886 42.6281 144.564 42.847 144.186 43.0112C143.798 43.1754 143.353 43.252 142.853 43.252C142.342 43.252 141.898 43.1754 141.52 43.0112C141.142 42.847 140.82 42.6281 140.565 42.3545C140.309 42.0808 140.12 41.7634 139.987 41.4022C139.865 41.0301 139.798 40.647 139.798 40.2311C139.798 39.8152 139.865 39.4211 139.987 39.0599C140.12 38.6878 140.309 38.3704 140.565 38.0967C140.82 37.8231 141.142 37.6042 141.52 37.44C141.898 37.2868 142.342 37.1992 142.853 37.1992ZM142.853 42.9565C143.131 42.9565 143.375 42.9127 143.587 42.8251C143.798 42.7376 143.975 42.6062 144.131 42.453C144.286 42.2997 144.42 42.1356 144.52 41.9385C144.631 41.7415 144.709 41.5445 144.775 41.3475C144.831 41.1395 144.875 40.9425 144.898 40.7455C144.931 40.5594 144.942 40.3843 144.942 40.2311C144.942 40.0778 144.931 39.9027 144.898 39.7057C144.875 39.5087 144.831 39.3117 144.775 39.1037C144.709 38.9067 144.631 38.7097 144.52 38.5127C144.42 38.3266 144.286 38.1515 144.131 37.9982C143.975 37.845 143.798 37.7246 143.587 37.6261C143.375 37.5385 143.131 37.4947 142.853 37.4947C142.576 37.4947 142.331 37.5385 142.12 37.6261C141.909 37.7246 141.72 37.845 141.565 37.9982C141.409 38.1515 141.287 38.3266 141.176 38.5127C141.076 38.7097 140.998 38.9067 140.931 39.1037C140.876 39.3117 140.831 39.5087 140.798 39.7057C140.776 39.9027 140.765 40.0778 140.765 40.2311C140.765 40.3843 140.776 40.5594 140.798 40.7455C140.831 40.9425 140.876 41.1395 140.931 41.3475C140.998 41.5445 141.076 41.7415 141.176 41.9385C141.287 42.1356 141.409 42.2997 141.565 42.453C141.72 42.6062 141.909 42.7376 142.12 42.8251C142.331 42.9127 142.576 42.9565 142.853 42.9565ZM147.308 38.2719C147.308 38.5455 147.375 38.7863 147.519 38.9724C147.664 39.1694 147.853 39.3445 148.064 39.4868C148.275 39.64 148.508 39.7823 148.753 39.9246C149.008 40.0559 149.242 40.1982 149.453 40.3624C149.664 40.5157 149.853 40.7017 149.997 40.9097C150.141 41.1176 150.208 41.3694 150.208 41.6649C150.208 42.1684 150.03 42.5624 149.664 42.8361C149.297 43.1097 148.797 43.252 148.153 43.252C147.908 43.252 147.697 43.2191 147.508 43.1644C147.319 43.0987 147.164 43.0331 147.031 42.9565C146.875 42.8689 146.742 42.7704 146.631 42.6609L146.831 42.453C146.942 42.5405 147.064 42.6281 147.197 42.7047C147.319 42.7704 147.464 42.8251 147.619 42.8689C147.786 42.9236 147.975 42.9455 148.164 42.9455C148.564 42.9455 148.864 42.8689 149.075 42.7157C149.275 42.5624 149.386 42.3326 149.386 42.0261C149.386 41.84 149.308 41.6649 149.164 41.5117C149.03 41.3584 148.853 41.2162 148.642 41.0848C148.43 40.9425 148.197 40.8002 147.953 40.6689C147.708 40.5266 147.475 40.3734 147.264 40.1982C147.053 40.0231 146.886 39.8261 146.742 39.6072C146.597 39.3883 146.531 39.1256 146.531 38.8301C146.531 38.2938 146.686 37.8997 147.008 37.6151C147.331 37.3415 147.797 37.1992 148.408 37.1992C148.575 37.1992 148.73 37.2211 148.875 37.2649C149.03 37.2977 149.164 37.3415 149.297 37.3962C149.43 37.451 149.553 37.5166 149.664 37.5823C149.764 37.6589 149.864 37.7246 149.941 37.7903L149.741 38.0092C149.675 37.9435 149.586 37.8888 149.497 37.8231C149.408 37.7574 149.297 37.7027 149.186 37.6589C149.075 37.6151 148.953 37.5714 148.819 37.5385C148.686 37.5057 148.553 37.4947 148.408 37.4947C148.208 37.4947 148.042 37.5166 147.908 37.5604C147.764 37.5933 147.653 37.6589 147.564 37.7246C147.475 37.8012 147.408 37.8778 147.364 37.9763C147.331 38.0639 147.308 38.1624 147.308 38.2719ZM152.908 37.3415C153.219 37.3415 153.497 37.3853 153.741 37.451C153.985 37.5276 154.197 37.6261 154.363 37.7684C154.541 37.9107 154.674 38.0858 154.763 38.2938C154.863 38.4908 154.908 38.7316 154.908 38.9943C154.908 39.5196 154.73 39.9355 154.374 40.2201C154.008 40.5047 153.519 40.647 152.908 40.647H152.186V43.1097H151.219V37.3415H152.908ZM152.786 40.3515C152.997 40.3515 153.174 40.3186 153.319 40.242C153.474 40.1654 153.586 40.0669 153.674 39.9465C153.774 39.8152 153.83 39.6729 153.874 39.5087C153.919 39.3445 153.941 39.1694 153.941 38.9943C153.941 38.8082 153.919 38.644 153.874 38.4798C153.83 38.3156 153.774 38.1734 153.674 38.042C153.586 37.9216 153.474 37.8231 153.319 37.7465C153.174 37.6699 152.997 37.637 152.786 37.637H152.186V40.3515H152.786ZM155.908 37.3415H156.874V43.1097H155.908V37.3415ZM162.407 37.3415V37.637H160.585V43.1097H159.618V37.637H157.796V37.3415H159.618H160.585H162.407ZM164.573 37.1992L167.062 43.1097H166.04L165.151 40.9644H163.296L162.407 43.1097H162.085L164.573 37.1992ZM165.04 40.6689L164.24 38.6987L163.418 40.6689H165.04ZM168.884 42.8251H171.273V43.1097H167.917V37.3415H168.884V42.8251Z" fill="white"/>
<path fill-rule="evenodd" clip-rule="evenodd" d="M28.9331 18.7472C29.3162 17.7806 29.1353 16.4884 28.6245 15.6795C26.741 12.7169 22.7505 13.7045 21.9098 16.2888C20.3987 20.9218 27.1241 23.2961 28.9331 18.7472Z" fill="white"/>
<path fill-rule="evenodd" clip-rule="evenodd" d="M25.4109 0C34.605 0 42.6499 4.83092 47.0873 12.0563C46.6297 12.6024 46.1615 13.117 45.6614 13.6001C41.6389 6.66877 34.0836 2.00588 25.4109 2.00588C16.7488 2.00588 9.18283 6.66877 5.17104 13.6001C4.67089 13.117 4.19203 12.6024 3.7451 12.0563C8.18254 4.83092 16.2274 0 25.4109 0ZM2.89379 19.0821C2.383 20.9725 2.10633 22.9574 2.10633 24.9947C2.10633 34.8771 8.42729 43.2997 17.2809 46.5553V46.6919C17.3235 46.6709 17.366 46.6394 17.4192 46.6079C19.9093 47.511 22.6016 47.9941 25.4109 47.9941C28.2308 47.9941 30.9337 47.5005 33.4345 46.5974C33.4557 46.6079 33.477 46.6184 33.4983 46.6289V46.5764C42.3838 43.3312 48.7154 34.8981 48.7154 24.9947C48.7154 22.9679 48.4494 20.9935 47.9493 19.1136C48.2791 18.5465 48.5984 17.9584 48.8963 17.3703C49.024 17.1288 49.1411 16.8662 49.2688 16.5932C50.2265 19.2187 50.7479 22.0437 50.7479 24.9947C50.7479 38.8049 39.4043 50 25.4109 50C11.4281 50 0.0844727 38.8049 0.0844727 24.9947C0.0844727 22.0332 0.605899 19.1871 1.57426 16.5511C1.70196 16.8557 1.84029 17.1393 1.96799 17.3913C2.26595 17.9584 2.57455 18.5255 2.89379 19.0821Z" fill="white"/>
<path fill-rule="evenodd" clip-rule="evenodd" d="M18.3027 43.6362C18.4198 43.4471 18.5156 43.2791 18.5794 43.1741C19.5371 41.6723 20.8141 40.2335 22.0591 38.9523C22.8892 38.1121 23.7617 37.272 24.6769 36.4738C24.4002 36.2428 24.1342 36.0327 23.8788 35.8332C22.9849 35.1506 21.7399 34.2054 20.4629 33.3967C19.154 36.6103 18.4836 40.097 18.3027 43.6362ZM30.8063 32.021C31.4874 31.6219 32.211 31.2648 32.9133 31.0338C39.8195 28.7233 44.7997 23.2203 48.024 16.9401C48.6093 15.8059 49.0775 14.5456 49.4712 13.3379C49.9927 11.7941 50.4183 10.2083 50.7695 8.61201C50.8014 8.44398 50.844 8.26545 50.8759 8.08691C50.7695 8.29695 50.6631 8.50699 50.546 8.71703C47.8431 13.5269 44.5017 16.457 39.5641 18.967C37.4678 20.0382 35.0309 20.6158 32.8069 21.3929C30.2849 22.2856 28.0715 23.3778 26.0922 25.1842C28.1247 27.2215 29.6677 29.532 30.8063 32.021Z" fill="white"/>
<path fill-rule="evenodd" clip-rule="evenodd" d="M32.4774 43.5727C32.1156 36.7569 29.9873 30.1196 24.8156 25.2782C22.8257 23.4193 20.5697 22.3061 18.0158 21.4029C15.7918 20.6258 13.3655 20.0482 11.2798 18.9875C6.35288 16.4775 3.02214 13.5684 0.329882 8.75853C0.212827 8.55899 0.106413 8.34895 0 8.14941C0.0425654 8.31745 0.0744894 8.49598 0.117055 8.66401C0.457578 10.2498 0.883232 11.8251 1.39402 13.3689C1.79839 14.5766 2.25597 15.8264 2.84124 16.9606C6.05493 23.2198 11.0244 28.7018 17.9094 31.0123C19.1225 31.4113 20.3782 32.178 21.4423 32.8816C22.4852 33.5748 23.4961 34.3204 24.4857 35.0765C25.9755 36.2318 27.4227 37.5655 28.7316 38.9098C29.9767 40.1805 31.243 41.6193 32.2007 43.1106C32.2646 43.2156 32.3603 43.3731 32.4774 43.5727Z" fill="white"/>
</svg>
