<svg width="60" height="53" viewBox="0 0 60 53" fill="none" xmlns="http://www.w3.org/2000/svg">
<path d="M10.1516 26.4852H9.00733L30.0147 47.6497L47.2665 30.2688H52.577L30.0147 53L4.6357 27.4607C3.9511 26.771 3.34474 26.0271 2.81663 25.2289C2.28851 24.4308 1.82885 23.5884 1.43765 22.7016H8.56724L16.8704 14.3659L30.0147 27.5789L39.4034 18.1495L43.9511 22.7016H54.3667C54.9927 21.6966 55.4719 20.6325 55.8044 19.5092C56.1369 18.3859 56.3032 17.2331 56.3032 16.0508C56.3032 14.3363 55.9853 12.7401 55.3496 11.2621C54.7139 9.78416 53.8435 8.49833 52.7384 7.40463C51.6333 6.31093 50.3423 5.45371 48.8655 4.83296C47.3888 4.21221 45.7995 3.90184 44.0978 3.90184C42.4548 3.90184 40.9976 4.16295 39.7262 4.68516C38.4548 5.20738 37.2812 5.89217 36.2054 6.73954C35.1296 7.58691 34.0978 8.54759 33.11 9.62158C32.1222 10.6956 31.0905 11.7843 30.0147 12.8879C28.9584 11.8238 27.9315 10.7498 26.934 9.66592C25.9364 8.58208 24.8949 7.60662 23.8093 6.73954C22.7237 5.87247 21.5403 5.16304 20.2592 4.61127C18.978 4.05949 17.5355 3.7836 15.9315 3.7836C14.2494 3.7836 12.6699 4.10383 11.1932 4.74428C9.71638 5.38474 8.42543 6.26167 7.32029 7.37507C6.21516 8.48847 5.34474 9.78909 4.70905 11.2769C4.07335 12.7647 3.7555 14.356 3.7555 16.0508C3.7555 16.9769 3.86308 17.9327 4.07824 18.918H0.234719C0.136919 18.4451 0.0733496 17.9721 0.0440098 17.4992C0.0146699 17.0262 0 16.5533 0 16.0803C0 13.8535 0.415648 11.7646 1.24694 9.81372C2.07824 7.8628 3.21271 6.15821 4.65037 4.69994C6.08802 3.24168 7.77506 2.09379 9.71149 1.25627C11.6479 0.418758 13.7213 0 15.9315 0C17.555 0 19.0024 0.18721 20.2738 0.561629C21.5452 0.936048 22.7237 1.45334 23.8093 2.1135C24.8949 2.77366 25.9315 3.56683 26.9193 4.49303C27.9071 5.41922 28.9389 6.4341 30.0147 7.53765C31.0905 6.4341 32.1222 5.41922 33.11 4.49303C34.0978 3.56683 35.1345 2.77366 36.2201 2.1135C37.3056 1.45334 38.4841 0.936048 39.7555 0.561629C41.0269 0.18721 42.4743 0 44.0978 0C46.2885 0 48.3521 0.418758 50.2885 1.25627C52.2249 2.09379 53.912 3.23183 55.3496 4.67038C56.7873 6.10894 57.9218 7.80368 58.7531 9.7546C59.5844 11.7055 60 13.7845 60 15.9916C60 17.9031 59.6675 19.7605 59.0024 21.5636C58.3374 23.3667 57.3888 25.0072 56.1565 26.4852H42.3667L39.4034 23.4702L30.0147 32.9587L16.8704 19.6866L10.1516 26.4852Z" fill="#319291"/>
</svg>
