<svg width="14" height="15" viewBox="0 0 14 15" fill="none" xmlns="http://www.w3.org/2000/svg">
<path d="M13.9998 0.941284L7.87283 11.436C7.48483 12.1004 6.52292 12.0964 6.14092 11.428L2.99999 5.93699H4L6.77396 8.70852C6.89394 8.82839 7.09 8.81443 7.19093 8.67956L12.9998 0.941461L13.9998 0.941284ZM12.4856 5.51728C12.8135 6.25762 12.9995 7.07482 12.9995 7.93505C12.9995 11.2401 10.3086 13.9296 6.99969 13.9296C3.69173 13.9296 0.999837 11.2401 0.999837 7.93505C0.999837 4.6291 3.69179 1.94045 6.99969 1.94045C8.2056 1.94045 9.32664 2.30112 10.2686 2.91455L10.8716 2.11028C9.76271 1.37304 8.43279 0.941432 6.99993 0.941432C3.13384 0.941432 0 4.07253 0 7.93523C0 11.7976 3.13384 14.929 6.99993 14.929C10.8657 14.929 13.9999 11.7976 13.9999 7.93523C13.9999 6.68031 13.6649 5.50638 13.0869 4.48839L12.486 5.51742L12.4856 5.51728Z" fill="#319291"/>
</svg>
